<svg xmlns="http://www.w3.org/2000/svg" xmlns:xlink="http://www.w3.org/1999/xlink" version="1.1" id="Layer_2" x="0px" y="0px" viewBox="5.0 -10.0 100.0 100.0" enable-background="new 0 0 100 100" xml:space="preserve" height="100px" width="100px">
<g>
	<path fill="#e91d26" d="M4.739,65.335c0-3.334,2.728-6.062,6.062-6.062h78.813c3.334,0,6.062,2.728,6.062,6.062H4.739z"/>
	<path fill="#e91d26" d="M4.74,67.654v7.661c0,3.333,2.727,6.061,6.061,6.061h78.814c3.334,0,6.061-2.728,6.061-6.061v-7.661H4.74z M47.751,73.754   h-34.2l0.002-2.635h34.197V73.754z M68.582,76.051c-0.848,0-1.534-0.688-1.534-1.536c0-0.847,0.686-1.534,1.534-1.534   c0.848,0,1.535,0.687,1.535,1.534C70.117,75.363,69.43,76.051,68.582,76.051z M76.126,76.648c-1.177,0-2.132-0.954-2.132-2.133   c0-1.178,0.954-2.132,2.132-2.132c1.177,0,2.131,0.954,2.131,2.132C78.258,75.693,77.304,76.648,76.126,76.648z M83.671,77.245   c-1.507,0-2.728-1.222-2.728-2.73c0-1.508,1.221-2.729,2.728-2.729c1.508,0,2.729,1.221,2.729,2.729   C86.4,76.023,85.179,77.245,83.671,77.245z"/>
</g>
<circle fill="#e91d26" cx="16.725" cy="28.097" r="2.893"/>
<g>
	<line x1="16.723" y1="62.398" x2="16.725" y2="28.097"/>
	<path fill="#e91d26" d="M14.278,62.398l1.469-34.301c0.023-0.54,0.48-0.959,1.02-0.936c0.511,0.022,0.913,0.435,0.936,0.936l1.466,34.301   c0.058,1.351-0.991,2.493-2.341,2.55c-1.351,0.058-2.493-0.991-2.55-2.341C14.275,62.538,14.275,62.465,14.278,62.398z"/>
</g>
<g>
	<path fill="#e91d26" d="M25.281,19.573c-0.32-0.32-0.838-0.32-1.157,0l-3.316,3.316c-0.32,0.32-0.32,0.837,0,1.157c0.319,0.32,0.838,0.32,1.157,0   l3.317-3.316C25.6,20.411,25.6,19.893,25.281,19.573z"/>
</g>
<g>
	<path fill="#e91d26" d="M27.955,27.198h-4.69c-0.452,0-0.818,0.366-0.818,0.818c0,0.452,0.366,0.818,0.818,0.818h4.69   c0.452,0,0.819-0.366,0.819-0.818C28.774,27.565,28.408,27.198,27.955,27.198z"/>
</g>
<g>
	<path fill="#e91d26" d="M17.655,16.899c0-0.452-0.366-0.818-0.818-0.818c-0.452,0-0.818,0.366-0.818,0.818v4.69c0,0.452,0.366,0.818,0.818,0.818   c0.452,0,0.818-0.366,0.818-0.818V16.899z"/>
</g>
</svg>