<?xml version="1.0" encoding="utf-8"?>
<!-- Generator: Adobe Illustrator 17.0.0, SVG Export Plug-In . SVG Version: 6.00 Build 0)  -->
<!DOCTYPE svg PUBLIC "-//W3C//DTD SVG 1.1//EN" "http://www.w3.org/Graphics/SVG/1.1/DTD/svg11.dtd" [
	<!ENTITY ns_extend "http://ns.adobe.com/Extensibility/1.0/">
	<!ENTITY ns_ai "http://ns.adobe.com/AdobeIllustrator/10.0/">
	<!ENTITY ns_graphs "http://ns.adobe.com/Graphs/1.0/">
	<!ENTITY ns_vars "http://ns.adobe.com/Variables/1.0/">
	<!ENTITY ns_imrep "http://ns.adobe.com/ImageReplacement/1.0/">
	<!ENTITY ns_sfw "http://ns.adobe.com/SaveForWeb/1.0/">
	<!ENTITY ns_custom "http://ns.adobe.com/GenericCustomNamespace/1.0/">
	<!ENTITY ns_adobe_xpath "http://ns.adobe.com/XPath/1.0/">
]>
<svg version="1.1" id="Layer_1" xmlns:x="&ns_extend;" xmlns:i="&ns_ai;" xmlns:graph="&ns_graphs;"
	 xmlns="http://www.w3.org/2000/svg" xmlns:xlink="http://www.w3.org/1999/xlink" x="0px" y="0px" width="30.15px"
	 height="37.292px" viewBox="11.046 -1.265 30.15 37.292" enable-background="new 11.046 -1.265 30.15 37.292" xml:space="preserve"
	>
<metadata>
	<sfw  xmlns="&ns_sfw;">
		<slices></slices>
		<sliceSourceBounds  width="30.15" height="37.292" x="-1.53" y="-14.882" bottomLeftOrigin="true"></sliceSourceBounds>
	</sfw>
</metadata>
<g id="Layer_1_1_">
	<g id="Foreground">
	</g>
</g>
<g id="Layer_2">
	<path fill="#e91d26" d="M41.19,7.479c-0.001-0.008-0.001-0.016-0.002-0.024l-0.016-0.124c-0.059-0.382-0.238-0.745-0.507-1.026
		c-0.829-0.978-1.841-1.932-3.184-3.001c-2.811-2.239-5.639-3.673-8.407-4.261c-1.801-0.382-3.664-0.409-5.522-0.078
		c-1.513,0.272-3.113,0.835-4.758,1.676c-2.178,1.113-4.279,2.668-6.245,4.62c-0.331,0.329-0.682,0.686-1.002,1.066
		c-0.668,0.79-0.668,1.81-0.001,2.598c0.819,0.973,1.838,1.934,3.204,3.024c2.81,2.239,5.638,3.673,8.407,4.261
		c0.966,0.205,1.956,0.31,2.94,0.31c0.853,0,1.721-0.078,2.582-0.232c1.53-0.274,3.087-0.821,4.756-1.676
		c2.181-1.113,4.282-2.668,6.246-4.618c0.321-0.318,0.661-0.664,0.984-1.045c0.267-0.279,0.446-0.638,0.506-1.016l0.023-0.058
		l0.001-0.173c0.001-0.025,0.001-0.05,0.001-0.075L41.19,7.479z M27.609,8.163c0,0.821-0.667,1.487-1.487,1.487
		c-0.821,0-1.488-0.666-1.488-1.487c0-0.185,0.038-0.36,0.1-0.524h2.776C27.571,7.803,27.609,7.978,27.609,8.163z M39.43,7.776
		l-0.047,0.051c-0.287,0.339-0.602,0.66-0.902,0.957c-1.839,1.827-3.797,3.277-5.82,4.31c-1.519,0.776-2.919,1.272-4.281,1.516
		c-1.639,0.293-3.279,0.27-4.867-0.067c-2.508-0.533-5.099-1.855-7.699-3.927c-1.276-1.018-2.218-1.903-2.964-2.79
		c-0.111-0.131-0.039-0.188-0.039-0.188h8.508c-0.021,0.184-0.035,0.369-0.035,0.558c0,2.672,2.167,4.837,4.838,4.837
		c2.672,0,4.836-2.165,4.836-4.837c0-0.189-0.013-0.375-0.035-0.558h8.561l-0.001,0.046C39.474,7.719,39.455,7.75,39.43,7.776z"/>
	<path fill="#e91d26" d="M36.099,31.247v-6.733h-2.05v3.967h-1.574v-6.108h-1.841V18.39h-2.561v3.984h-6.14v3.628h-5.057v6.076
		h-3.759v3.949h27.019v-4.779h-4.037V31.247z M21.76,29.978h-1.728V28.25h1.728V29.978z M25.562,29.978h-1.728V28.25h1.728V29.978z
		 M25.562,26.521h-1.728v-1.728h1.728V26.521z M30.574,32.399h-1.729V30.67h1.729V32.399z M30.574,28.941h-1.729v-1.729h1.729
		V28.941z"/>
</g>
<g id="Layer_4">
</g>
</svg>
