<svg xmlns="http://www.w3.org/2000/svg" xmlns:xlink="http://www.w3.org/1999/xlink" xmlns:sketch="http://www.bohemiancoding.com/sketch/ns" width="100px" height="96px" viewBox="5.0 -9.6 100.0 110" version="1.1">
    <title>calendar</title>
    <description>Created with Sketch (http://www.bohemiancoding.com/sketch)</description>
    <defs/>
    <g id="Office" stroke="none" stroke-width="1" fill="none" fill-rule="evenodd" sketch:type="MSPage">
        <path d="M80,8 L80,18.9219008 C80,19.4717443 79.5553691,19.9174805 78.9991283,19.9174805 L65.0008717,19.9174805 C64.4481055,19.9174805 64,19.4648536 64,18.9219008 L64,8 L36,8 L36,18.9219008 C36,19.4717443 35.5553691,19.9174805 34.9991283,19.9174805 L21.0008717,19.9174805 C20.4481055,19.9174805 20,19.4648536 20,18.9219008 L20,8 L2.99420208,8 C1.34054993,8 1.375244e-15,9.34705566 1.375244e-15,11.0037017 L1.375244e-15,92.9962983 C1.375244e-15,94.655197 1.33801252,96 2.99280137,96 L97.0071986,96 C98.6600772,96 100,94.6529443 100,92.9962983 L100,11.0037017 C100,9.34480304 98.656688,8 97.0057979,8 L80,8 Z M5,75 L5,89.0059397 C5,90.1072288 5.89706013,91 7.00585866,91 L19,91 L19,75 L5,75 Z M24,75 L24,91 L38,91 L38,75 L24,75 Z M43,75 L43,91 L57,91 L57,75 L43,75 Z M62,75 L62,91 L76,91 L76,75 L62,75 Z M81,75 L81,91 L92.9941413,91 C94.1019465,91 95,90.1054862 95,89.0059397 L95,75 L81,75 Z M5,54 L5,70 L19,70 L19,54 L5,54 Z M24,54 L24,70 L38,70 L38,54 L24,54 Z M62,54 L62,70 L76,70 L76,54 L62,54 Z M81,54 L81,70 L95,70 L95,54 L81,54 Z M5,32 L5,48 L19,48 L19,32 L5,32 Z M24,32 L24,48 L38,48 L38,32 L24,32 Z M43,32 L43,48 L57,48 L57,32 L43,32 Z M62,32 L62,48 L76,48 L76,32 L62,32 Z M81,32 L81,48 L95,48 L95,32 L81,32 Z M27.0016655,-1.42108547e-14 C25.3438914,-1.42108547e-14 24,1.33663106 24,3.00947762 L24,12.9905224 C24,14.652611 25.3390201,16 27.0016655,16 L28.9983345,16 C30.6561086,16 32,14.6633689 32,12.9905224 L32,3.00947762 C32,1.34738902 30.6609799,-1.42108547e-14 28.9983345,-1.42108547e-14 L27.0016655,-1.42108547e-14 Z M72,-1.42108547e-14 C69.790861,-1.42108547e-14 68,1.78883037 68,3.99620271 L68,12.0037973 C68,14.2108391 69.7953562,16 72,16 C74.209139,16 76,14.2111696 76,12.0037973 L76,3.99620271 C76,1.78916089 74.2046438,-1.42108547e-14 72,-1.42108547e-14 Z M72,-1.42108547e-14" id="calendar" fill="#292929" sketch:type="MSShapeGroup"/>
    </g>
</svg>