<?xml version="1.0" encoding="utf-8"?>
<!-- Generator: Adobe Illustrator 17.0.0, SVG Export Plug-In . SVG Version: 6.00 Build 0)  -->
<!DOCTYPE svg PUBLIC "-//W3C//DTD SVG 1.1//EN" "http://www.w3.org/Graphics/SVG/1.1/DTD/svg11.dtd" [
	<!ENTITY ns_extend "http://ns.adobe.com/Extensibility/1.0/">
	<!ENTITY ns_ai "http://ns.adobe.com/AdobeIllustrator/10.0/">
	<!ENTITY ns_graphs "http://ns.adobe.com/Graphs/1.0/">
	<!ENTITY ns_vars "http://ns.adobe.com/Variables/1.0/">
	<!ENTITY ns_imrep "http://ns.adobe.com/ImageReplacement/1.0/">
	<!ENTITY ns_sfw "http://ns.adobe.com/SaveForWeb/1.0/">
	<!ENTITY ns_custom "http://ns.adobe.com/GenericCustomNamespace/1.0/">
	<!ENTITY ns_adobe_xpath "http://ns.adobe.com/XPath/1.0/">
]>
<svg version="1.1" id="Layer_1" xmlns:x="&ns_extend;" xmlns:i="&ns_ai;" xmlns:graph="&ns_graphs;"
	 xmlns="http://www.w3.org/2000/svg" xmlns:xlink="http://www.w3.org/1999/xlink" x="0px" y="0px" width="35.556px"
	 height="32.759px" viewBox="6.844 0.154 35.556 32.759" enable-background="new 6.844 0.154 35.556 32.759" xml:space="preserve">
<metadata>
	<sfw  xmlns="&ns_sfw;">
		<slices></slices>
		<sliceSourceBounds  width="35.556" height="32.759" x="-14.656" y="-6.413" bottomLeftOrigin="true"></sliceSourceBounds>
	</sfw>
</metadata>
<g>
	<path fill="#e91d26" d="M23.151,3.605H7.527c-0.377,0-0.682,0.306-0.682,0.682v11.67c0,0.376,0.306,0.682,0.682,0.682h15.624
		c0.377,0,0.682-0.306,0.682-0.682V4.287C23.833,3.911,23.528,3.605,23.151,3.605z M17.864,10.805h-5.05
		c-0.377,0-0.682-0.305-0.682-0.682c0-0.376,0.305-0.682,0.682-0.682h5.05c0.377,0,0.682,0.306,0.682,0.682
		C18.546,10.499,18.241,10.805,17.864,10.805z"/>
	<path fill="#e91d26" d="M38.161,0.154h-8.656c-2.338,0-4.239,2.102-4.239,4.686v23.386c0,2.584,1.901,4.687,4.239,4.687h8.656
		c2.336,0,4.239-2.103,4.239-4.687V4.84C42.4,2.256,40.498,0.154,38.161,0.154z M33.833,27.943h-3.175
		c-0.378,0-0.683-0.305-0.683-0.682c0-0.378,0.305-0.683,0.683-0.683h3.175c0.376,0,0.682,0.305,0.682,0.683
		C34.515,27.638,34.209,27.943,33.833,27.943z M33.833,17.308c-3.011,0-5.46-2.449-5.46-5.459s2.449-5.46,5.46-5.46
		c3.01,0,5.459,2.449,5.459,5.46C39.293,14.859,36.843,17.308,33.833,17.308z"/>
</g>
</svg>
