<svg xmlns="http://www.w3.org/2000/svg" xmlns:xlink="http://www.w3.org/1999/xlink" version="1.1" id="Layer_1" x="0px" y="0px" viewBox="0 0 100 100" enable-background="new 0 0 100 100" xml:space="preserve" height="100px" width="100px">
<path fill="#e91d26" d="M81,51c3.6,0,6.5,2.9,6.5,6.5c0.1,3.2-2.5,6.3-6.2,6.3c-3.5,0-6.4-2.8-6.4-6.5C74.8,53.6,77.8,51,81,51z"/>
<path fill="#e91d26" d="M23,51c3.5,0,6.3,2.7,6.3,6.4c0,3.6-2.8,6.4-6.3,6.4c-3.5,0-6.2-2.7-6.3-6.4C16.8,53.8,19.5,51,23,51z"/>
<path fill="#e91d26" d="M5.3,54.1c-0.2,0.3-0.2,0.6,0,0.9c0.3,0.6,0.5,1.1,0.7,1.7c0.1,0.1,0.1,0.3,0.2,0.4c0.3,0.2,0.4,0.6,0.5,0.9  c0.1,0.1,0.1,0.2,0.2,0.3c1.5,1.1,3.3,1.1,5.1,1.5c0.9,0.2,1.7,0.2,2.6,0.3c0.2,0,0.3-1.1,0.2-1.6c0-0.3,0.1-0.5,0.1-0.8  c0-0.1,0-0.2,0-0.2c0.1-4.6,3.6-8.2,8-8.2c3.2,0,5.9,1.8,7.2,4.5c0,0,0,0,0,0.1c0.1,0.1,0.1,0.3,0.2,0.4c0.9,2.2,0.8,4.4,0.6,4.6  c-0.2,0.8-0.4,1.7-0.5,2.3c-0.1,0.4,0.2,0.7,0.6,0.7c1.1-0.1,3.3-0.3,5.6-0.5c12.3,0,24.5-0.1,36.9-0.1c0.2-0.3,0.1-0.2,0.3-0.5  c-0.4-0.8-0.7-2.4-0.7-3.3c0.1-4.6,3.6-8.2,8-8.2c4.4,0,8,3.5,8,8.1c0,0,0,0,0,0c0,1.1-0.2,2-0.4,2.5c-0.1,0.3,0.1,0.5,0.3,0.5  c0.9,0,1.9,0,2.8-0.3c0.4-0.1,0.8-0.1,1.2-0.2c0.5-0.1,0.6-0.3,0.6-0.8c0-0.1,0-0.2,0-0.2c0.4-0.9,0.5-1.8,0.6-2.7  c0-0.2,0-0.4,0.1-0.6c0.5-0.3,0.5-0.3,0.5-0.8c0-0.5,0.1-0.9,0.1-1.4c0-0.4-0.2-0.7-0.5-0.9c-0.4-0.2-0.9-0.4-1.3-0.6  c0,0,0-0.1,0-0.2c0-0.4,0-0.9,0-1.3c0.1-1.4-0.6-2.2-1.7-2.8c-0.6-0.3-1.2-0.5-1.8-0.7c-1.3-0.3-5.7-1.5-6.7-1.7  c-1.6-0.3-3.3-0.5-5-0.7c-1.8-0.2-3.5-0.3-5.3-0.5c-0.7-0.1-1.4-0.1-2.2,0c-0.5,0-0.9-0.1-1.3-0.3c-3.4-2-12.6-6.2-13.6-6.7  c-1.7-0.8-3.6-1.1-5.4-1.4c-1.2-0.2-2.4-0.2-3.6-0.2c-4.1,0-8.2,0-12.3,0.4c-1.7,0.2-3.4,0.4-5.1,0.8c-1.8,0.4-3.6,1.3-5.3,1.9  c-2.3,0.9-4.5,2-6.8,3C15.8,42.3,12.9,43,10,43c-0.8,0-1.5,0-2.3,0c-0.2,0-0.4,0-0.6,0.1c-0.2,0.1-0.4,0.2-0.3,0.5  c0.4,1.6,0.2,3.2-0.1,4.8c-0.1,0.6-0.1,1.2-0.1,1.9c0,0.1,0,0.2,0,0.3c-0.2,0.1-0.5,0.1-0.7,0.2c-0.6,0.2-0.9,0.8-0.8,1.4  c0.1,0.5,0.2,1,0.3,1.5C5.4,53.7,5.4,53.9,5.3,54.1z M40.8,37c1.9-0.2,4.7-0.2,6.8-0.1c2,0.1,3.9,0.4,5.8,1c1.7,0.6,8.5,4.2,8.5,4.2  c0.2,0.1,0.3,0.2,0.5,0.3l0,0c-0.1,0-0.2,0-0.3,0c-0.1,0-0.2,0.1-0.4,0.2h0c-0.2-0.1-0.3-0.1-0.5-0.1c0,0,0,0,0,0  c-0.1,0-1-0.4-1.2,0.3c0,0.1-0.2,0.6-0.2,0.9c0,0.7,0.5,1.1,0.5,1.1h0c-0.1,0.2-0.2,0.4-0.3,0.6c-0.4,0-10.8-0.3-17.7-0.4l-2-7  C40.3,37.5,40.5,37,40.8,37z M22.9,42.7c0-0.6,0.8-1.2,1-1.3c0.5-0.4,2.9-1.5,6.1-2.8c2.6-1.1,6.1-1.1,7.4-1.3  c0.3,0,0.5,0.2,0.5,0.4l0.6,7c-1.4,0-13.8-0.3-14.1-0.3C24,44.4,23,43.9,22.9,42.7z"/>
</svg>