<?xml version="1.0" encoding="utf-8"?>
<!-- Generator: Adobe Illustrator 17.0.0, SVG Export Plug-In . SVG Version: 6.00 Build 0)  -->
<!DOCTYPE svg PUBLIC "-//W3C//DTD SVG 1.1//EN" "http://www.w3.org/Graphics/SVG/1.1/DTD/svg11.dtd" [
	<!ENTITY ns_extend "http://ns.adobe.com/Extensibility/1.0/">
	<!ENTITY ns_ai "http://ns.adobe.com/AdobeIllustrator/10.0/">
	<!ENTITY ns_graphs "http://ns.adobe.com/Graphs/1.0/">
	<!ENTITY ns_vars "http://ns.adobe.com/Variables/1.0/">
	<!ENTITY ns_imrep "http://ns.adobe.com/ImageReplacement/1.0/">
	<!ENTITY ns_sfw "http://ns.adobe.com/SaveForWeb/1.0/">
	<!ENTITY ns_custom "http://ns.adobe.com/GenericCustomNamespace/1.0/">
	<!ENTITY ns_adobe_xpath "http://ns.adobe.com/XPath/1.0/">
]>
<svg version="1.1" id="Layer_1" xmlns:x="&ns_extend;" xmlns:i="&ns_ai;" xmlns:graph="&ns_graphs;"
	 xmlns="http://www.w3.org/2000/svg" xmlns:xlink="http://www.w3.org/1999/xlink" x="0px" y="0px" width="68.148px"
	 height="42.221px" viewBox="17.222 -15.554 68.148 42.221" enable-background="new 17.222 -15.554 68.148 42.221"
	 xml:space="preserve">
<metadata>
	<sfw  xmlns="&ns_sfw;">
		<slices></slices>
		<sliceSourceBounds  width="68.148" height="42.221" x="-14.352" y="-3.056" bottomLeftOrigin="true"></sliceSourceBounds>
	</sfw>
</metadata>
<g>
	<path fill="#e91d26" d="M75.348,1.239c-0.155-9.285-8.161-16.793-17.98-16.793c-6.701,0-12.877,3.596-15.955,9.223
		c-1.315-0.648-2.77-0.987-4.253-0.987c-4.971,0-9.043,3.736-9.273,8.41C21.67,2.399,17.222,7.617,17.222,13.719
		c0,7.14,6.116,12.948,13.633,12.948h40.881c7.518,0.001,13.634-5.808,13.634-12.948C85.37,7.825,81.28,2.774,75.348,1.239z
		 M51.296,22.556c-6.136,0-11.111-4.975-11.111-11.112c0-6.136,4.975-11.11,11.111-11.11c6.137,0,11.111,4.974,11.111,11.11
		C62.407,17.581,57.433,22.556,51.296,22.556z"/>
	<path fill="#e91d26" d="M51.296,5.28c-1.931,0-3.647,0.936-4.748,2.387c0.36-0.208,0.77-0.337,1.213-0.337
		c1.372,0,2.484,1.138,2.484,2.543c0,1.404-1.113,2.543-2.484,2.543c-1.164,0-2.135-0.825-2.402-1.933
		c-0.047,0.315-0.08,0.633-0.08,0.961c0,3.404,2.696,6.164,6.019,6.164c3.324,0,6.02-2.761,6.02-6.164
		C57.316,8.04,54.619,5.28,51.296,5.28z"/>
</g>
</svg>
