<?xml version="1.0" encoding="utf-8"?>
<!-- Generator: Adobe Illustrator 17.0.0, SVG Export Plug-In . SVG Version: 6.00 Build 0)  -->
<!DOCTYPE svg PUBLIC "-//W3C//DTD SVG 1.1//EN" "http://www.w3.org/Graphics/SVG/1.1/DTD/svg11.dtd" [
	<!ENTITY ns_extend "http://ns.adobe.com/Extensibility/1.0/">
	<!ENTITY ns_ai "http://ns.adobe.com/AdobeIllustrator/10.0/">
	<!ENTITY ns_graphs "http://ns.adobe.com/Graphs/1.0/">
	<!ENTITY ns_vars "http://ns.adobe.com/Variables/1.0/">
	<!ENTITY ns_imrep "http://ns.adobe.com/ImageReplacement/1.0/">
	<!ENTITY ns_sfw "http://ns.adobe.com/SaveForWeb/1.0/">
	<!ENTITY ns_custom "http://ns.adobe.com/GenericCustomNamespace/1.0/">
	<!ENTITY ns_adobe_xpath "http://ns.adobe.com/XPath/1.0/">
]>
<svg version="1.1" id="Layer_1" xmlns:x="&ns_extend;" xmlns:i="&ns_ai;" xmlns:graph="&ns_graphs;"
	 xmlns="http://www.w3.org/2000/svg" xmlns:xlink="http://www.w3.org/1999/xlink" x="0px" y="0px" width="108.478px"
	 height="86.805px" viewBox="0 0 108.478 86.805" enable-background="new 0 0 108.478 86.805" xml:space="preserve">
<metadata>
	<sfw  xmlns="&ns_sfw;">
		<slices></slices>
		<sliceSourceBounds  width="108.478" height="86.805" y="207.098" x="195.261" bottomLeftOrigin="true"></sliceSourceBounds>
		<optimizationSettings>
			<targetSettings  fileFormat="PNG24Format" targetSettingsID="0">
				<PNG24Format  transparency="false" matteColor="#FFFFFF" interlaced="false" filtered="false" noMatteColor="false">
					</PNG24Format>
			</targetSettings>
		</optimizationSettings>
	</sfw>
</metadata>
<path fill="#E91D26" d="M101.076,28.284c-13.94,0-25.31-11.302-25.31-25.24v-0.06c0.004-3.983,5.973-3.974,5.969,0.007v0.056
	c0,10.638,8.692,19.264,19.332,19.267C105.048,22.307,105.057,28.276,101.076,28.284L101.076,28.284z M101.081,17.052
	c-7.736,0-14.083-6.276-14.083-14.01V2.978c0.011-3.981,5.982-3.963,5.971,0.017l-0.002,0.051c0,4.435,3.66,8.031,8.097,8.035
	C105.042,11.067,105.061,17.04,101.081,17.052L101.081,17.052z M101.002,5.944c-1.599,0-2.896-1.296-2.896-2.896
	c0-1.599,1.298-2.896,2.896-2.896c1.601,0,2.898,1.298,2.898,2.896C103.9,4.648,102.603,5.944,101.002,5.944L101.002,5.944z
	 M101.074,39.763c-20.282,0-36.789-16.439-36.789-36.718V2.984c0.004-3.983,5.973-3.976,5.969,0.007v0.058
	c0,16.981,13.833,30.746,30.814,30.746C105.05,33.792,105.055,39.761,101.074,39.763L101.074,39.763z M73.737,75.227
	c0-6.394,5.184-11.578,11.578-11.578c6.395,0,11.578,5.184,11.578,11.578s-5.184,11.578-11.578,11.578
	C78.92,86.804,73.737,81.62,73.737,75.227L73.737,75.227z M79.653,75.227c0,3.124,2.535,5.662,5.662,5.662s5.663-2.537,5.663-5.662
	c0-3.128-2.535-5.662-5.663-5.662C82.188,69.565,79.653,72.098,79.653,75.227L79.653,75.227z M11.889,34.852
	c-1.098,0-1.988,0.889-1.988,1.989v9.03c0,1.097,0.889,1.985,1.988,1.985l1.201,0.003c1.108,0,1.513-0.102,2.517-1.43l6.81-9.588
	c0.776-1.099,0.516-1.989-0.583-1.989h-9.188L11.889,34.852L11.889,34.852z M66.129,36.281c-1.003-1.328-1.408-1.43-2.516-1.43
	l-10.15,0.002c-1.098,0-1.989,0.889-1.989,1.986v9.03c0,1.099,0.891,1.988,1.989,1.988h18.891c1.099,0,1.361-0.888,0.587-1.988
	L66.129,36.281L66.129,36.281z M44.937,47.857c1.098,0,1.988-0.888,1.988-1.988v-9.031c0-1.097-0.889-1.986-1.988-1.986
	L30.509,34.85c-1.107,0-1.513,0.103-2.516,1.43l-6.812,9.588c-0.776,1.099-0.515,1.988,0.583,1.988L44.937,47.857L44.937,47.857z
	 M55.846,51.478c-0.331-0.394-0.84-0.663-1.526-0.663c-2.66,0-2.66,3.978-0.009,3.978c0.689,0,1.201-0.269,1.532-0.661h4.785
	c1.768,0,1.768-2.653,0-2.653h-4.781L55.846,51.478L55.846,51.478z M42.892,51.478h-4.784c-1.766,0-1.766,2.653,0,2.653h4.787
	c0.332,0.391,0.842,0.66,1.531,0.66c2.652,0,2.652-3.979-0.009-3.979C43.732,50.812,43.223,51.081,42.892,51.478L42.892,51.478z
	 M1.986,72.638C0.889,72.638,0,71.748,0,70.651v-5.244c0-1.097,0.889-1.986,1.986-1.986l3.316-0.009l0.003-26.573
	c0-3.66,2.969-6.625,6.627-6.625H64.08c2.74,0,4.458,0.931,6.249,3.31l10.175,14.332l17.184,0.002c2.926,0,5.302,2.373,5.302,5.302
	v10.256l3.502,0.009c1.097,0,1.986,0.888,1.986,1.986v5.244c0,1.097-0.889,1.985-1.986,1.985h-5.85
	c-1.234-7.352-7.626-12.952-15.327-12.952c-7.7,0-14.093,5.6-15.327,12.952H39.854c-1.234-7.354-7.626-12.956-15.329-12.956
	c-7.701,0-14.093,5.602-15.325,12.952L1.986,72.638L1.986,72.638z M18.865,75.227c0,3.124,2.535,5.662,5.662,5.662
	s5.663-2.537,5.663-5.662c0-3.128-2.535-5.662-5.663-5.662C21.399,69.565,18.865,72.098,18.865,75.227L18.865,75.227z M12.95,75.227
	c0-6.394,5.182-11.578,11.577-11.578s11.579,5.184,11.579,11.578s-5.185,11.577-11.58,11.577S12.95,81.62,12.95,75.227L12.95,75.227
	z"/>
</svg>
