<?xml version="1.0" encoding="utf-8"?>
<!-- Generator: Adobe Illustrator 17.0.0, SVG Export Plug-In . SVG Version: 6.00 Build 0)  -->
<!DOCTYPE svg PUBLIC "-//W3C//DTD SVG 1.1//EN" "http://www.w3.org/Graphics/SVG/1.1/DTD/svg11.dtd" [
	<!ENTITY ns_extend "http://ns.adobe.com/Extensibility/1.0/">
	<!ENTITY ns_ai "http://ns.adobe.com/AdobeIllustrator/10.0/">
	<!ENTITY ns_graphs "http://ns.adobe.com/Graphs/1.0/">
	<!ENTITY ns_vars "http://ns.adobe.com/Variables/1.0/">
	<!ENTITY ns_imrep "http://ns.adobe.com/ImageReplacement/1.0/">
	<!ENTITY ns_sfw "http://ns.adobe.com/SaveForWeb/1.0/">
	<!ENTITY ns_custom "http://ns.adobe.com/GenericCustomNamespace/1.0/">
	<!ENTITY ns_adobe_xpath "http://ns.adobe.com/XPath/1.0/">
]>
<svg version="1.1" id="Your_Icon" xmlns:x="&ns_extend;" xmlns:i="&ns_ai;" xmlns:graph="&ns_graphs;"
	 xmlns="http://www.w3.org/2000/svg" xmlns:xlink="http://www.w3.org/1999/xlink" x="0px" y="0px" width="49.826px"
	 height="63.964px" viewBox="26.656 2.332 49.826 63.964" enable-background="new 26.656 2.332 49.826 63.964" xml:space="preserve"
	>
<metadata>
	<sfw  xmlns="&ns_sfw;">
		<slices></slices>
		<sliceSourceBounds  width="49.826" height="63.964" x="4.243" y="-31.814" bottomLeftOrigin="true"></sliceSourceBounds>
	</sfw>
</metadata>
<g>
	<path fill="#292929" d="M26.656,31.42v34.876h49.826V31.42H26.656z M48.527,57.224l-7.808-7.807l3.256-3.256l4.552,4.551
		l11.095-11.096l3.254,3.256L48.527,57.224z"/>
	<path fill="#292929" d="M41.602,19.773c0.029-2.086-0.003-9.965,9.965-9.965s9.936,7.912,9.964,9.965v7.474h7.476v-7.476
		c0,0-0.002-17.439-17.439-17.439c-17.436,0-17.44,17.439-17.44,17.439v7.476h7.473C41.602,27.248,41.602,19.773,41.602,19.773z"/>
</g>
</svg>
