<?xml version="1.0" encoding="utf-8"?>
<!-- Generator: Adobe Illustrator 17.0.0, SVG Export Plug-In . SVG Version: 6.00 Build 0)  -->
<!DOCTYPE svg PUBLIC "-//W3C//DTD SVG 1.1//EN" "http://www.w3.org/Graphics/SVG/1.1/DTD/svg11.dtd" [
	<!ENTITY ns_extend "http://ns.adobe.com/Extensibility/1.0/">
	<!ENTITY ns_ai "http://ns.adobe.com/AdobeIllustrator/10.0/">
	<!ENTITY ns_graphs "http://ns.adobe.com/Graphs/1.0/">
	<!ENTITY ns_vars "http://ns.adobe.com/Variables/1.0/">
	<!ENTITY ns_imrep "http://ns.adobe.com/ImageReplacement/1.0/">
	<!ENTITY ns_sfw "http://ns.adobe.com/SaveForWeb/1.0/">
	<!ENTITY ns_custom "http://ns.adobe.com/GenericCustomNamespace/1.0/">
	<!ENTITY ns_adobe_xpath "http://ns.adobe.com/XPath/1.0/">
]>
<svg version="1.1" xmlns:x="&ns_extend;" xmlns:i="&ns_ai;" xmlns:graph="&ns_graphs;"
	 xmlns="http://www.w3.org/2000/svg" xmlns:xlink="http://www.w3.org/1999/xlink" x="0px" y="0px" width="475.193px"
	 height="101.113px" viewBox="0 0 475.193 101.113" enable-background="new 0 0 475.193 101.113" xml:space="preserve">
<metadata>
	<sfw  xmlns="&ns_sfw;">
		<slices></slices>
		<sliceSourceBounds  width="2248.566" height="1473.678" x="-236.333" y="-1098.997" bottomLeftOrigin="true"></sliceSourceBounds>
		<optimizationSettings>
			<targetSettings  fileFormat="PNG24Format" targetSettingsID="0">
				<PNG24Format  transparency="false" filtered="false" matteColor="#FFFFFF" noMatteColor="false" interlaced="false">
					</PNG24Format>
			</targetSettings>
		</optimizationSettings>
	</sfw>
</metadata>
<g id="Layer_1" display="none">
</g>
<g id="Layer_2">
	<g>
		<g>
			<path fill="#212121" d="M119.911,39.313h3.924l10.98,25.488h-5.184l-2.376-5.832h-11.052l-2.304,5.832h-5.076L119.911,39.313z
				 M125.671,55.081l-3.924-10.368l-3.996,10.368H125.671z M123.511,32.113h4.896l-5.076,5.184h-3.384L123.511,32.113z"/>
			<path fill="#212121" d="M140.935,39.313h6.012l11.844,19.08h0.072v-19.08h4.536v25.488h-5.76l-12.096-19.692h-0.072v19.692
				h-4.536V39.313z"/>
			<path fill="#212121" d="M194.935,63.469c-1.296,0.625-2.718,1.11-4.266,1.458c-1.548,0.348-3.33,0.522-5.346,0.522
				c-2.064,0-3.948-0.33-5.652-0.99c-1.704-0.66-3.168-1.584-4.392-2.772c-1.224-1.188-2.178-2.604-2.862-4.248
				s-1.026-3.462-1.026-5.454c0-2.04,0.354-3.882,1.062-5.526c0.708-1.644,1.68-3.042,2.916-4.194
				c1.236-1.152,2.694-2.04,4.374-2.664c1.68-0.624,3.504-0.936,5.472-0.936c2.04,0,3.906,0.294,5.598,0.882
				c1.692,0.588,3.054,1.362,4.086,2.322l-3.132,3.384c-0.648-0.72-1.554-1.332-2.718-1.836c-1.165-0.504-2.43-0.756-3.798-0.756
				c-1.344,0-2.562,0.24-3.654,0.72c-1.092,0.48-2.022,1.14-2.79,1.98c-0.769,0.84-1.362,1.824-1.782,2.952s-0.63,2.352-0.63,3.672
				c0,1.368,0.21,2.622,0.63,3.762c0.42,1.141,1.02,2.13,1.8,2.97c0.78,0.84,1.728,1.494,2.844,1.962
				c1.116,0.468,2.382,0.702,3.798,0.702c1.944,0,3.636-0.3,5.076-0.9v-6.48h-5.364v-3.744h9.756V63.469z"/>
			<path fill="#212121" d="M204.042,39.313h16.884v3.96h-12.348v6.48h11.7v3.816h-11.7v7.2h12.996v4.032h-17.532V39.313z"/>
			<path fill="#212121" d="M229.602,39.313h4.536v21.456h10.836v4.032h-15.372V39.313z"/>
			<path fill="#212121" d="M285.654,63.469c-1.296,0.625-2.718,1.11-4.266,1.458c-1.548,0.348-3.33,0.522-5.346,0.522
				c-2.064,0-3.948-0.33-5.652-0.99c-1.704-0.66-3.168-1.584-4.392-2.772c-1.224-1.188-2.178-2.604-2.862-4.248
				s-1.026-3.462-1.026-5.454c0-2.04,0.354-3.882,1.062-5.526c0.708-1.644,1.68-3.042,2.916-4.194
				c1.236-1.152,2.694-2.04,4.374-2.664c1.68-0.624,3.504-0.936,5.472-0.936c2.04,0,3.906,0.294,5.598,0.882
				c1.692,0.588,3.054,1.362,4.086,2.322l-3.132,3.384c-0.648-0.72-1.554-1.332-2.718-1.836c-1.165-0.504-2.43-0.756-3.798-0.756
				c-1.344,0-2.562,0.24-3.654,0.72c-1.092,0.48-2.022,1.14-2.79,1.98c-0.769,0.84-1.362,1.824-1.782,2.952s-0.63,2.352-0.63,3.672
				c0,1.368,0.21,2.622,0.63,3.762c0.42,1.141,1.02,2.13,1.8,2.97c0.78,0.84,1.728,1.494,2.844,1.962
				c1.116,0.468,2.382,0.702,3.798,0.702c1.944,0,3.636-0.3,5.076-0.9v-6.48h-5.364v-3.744h9.756V63.469z"/>
			<path fill="#212121" d="M315.065,55.441c0,1.536-0.264,2.922-0.792,4.158c-0.527,1.236-1.248,2.286-2.159,3.15
				c-0.913,0.864-1.993,1.53-3.24,1.998c-1.248,0.468-2.604,0.702-4.068,0.702s-2.82-0.234-4.067-0.702
				c-1.249-0.468-2.335-1.134-3.259-1.998c-0.924-0.864-1.644-1.914-2.159-3.15c-0.517-1.236-0.774-2.622-0.774-4.158V39.313h4.536
				v15.948c0,0.744,0.096,1.482,0.288,2.214c0.191,0.732,0.51,1.386,0.954,1.962c0.443,0.576,1.031,1.044,1.764,1.404
				c0.731,0.36,1.638,0.54,2.718,0.54s1.985-0.18,2.718-0.54s1.32-0.828,1.765-1.404c0.443-0.576,0.762-1.23,0.954-1.962
				c0.191-0.731,0.288-1.47,0.288-2.214V39.313h4.535V55.441z"/>
			<path fill="#212121" d="M331.589,39.313h3.924l10.98,25.488h-5.185l-2.376-5.832h-11.052l-2.304,5.832h-5.076L331.589,39.313z
				 M337.349,55.081l-3.924-10.368l-3.996,10.368H337.349z"/>
			<path fill="#212121" d="M352.614,39.313h8.855c1.2,0,2.364,0.126,3.492,0.378s2.13,0.666,3.006,1.242
				c0.876,0.576,1.578,1.332,2.106,2.268c0.527,0.936,0.792,2.076,0.792,3.42c0,1.849-0.522,3.354-1.566,4.518
				c-1.044,1.165-2.466,1.95-4.266,2.358l6.804,11.304h-5.472l-5.904-10.8h-3.312v10.8h-4.536V39.313z M360.857,50.293
				c0.648,0,1.297-0.048,1.944-0.144c0.648-0.096,1.229-0.276,1.746-0.54c0.516-0.264,0.941-0.642,1.278-1.134
				c0.336-0.491,0.504-1.122,0.504-1.89c0-0.696-0.156-1.266-0.468-1.71c-0.313-0.444-0.709-0.798-1.188-1.062
				c-0.48-0.264-1.026-0.444-1.638-0.54c-0.612-0.096-1.206-0.144-1.782-0.144h-4.104v7.164H360.857z"/>
			<path fill="#212121" d="M378.858,39.313h9.036c1.655,0,3.323,0.216,5.004,0.648c1.68,0.432,3.191,1.146,4.535,2.142
				c1.345,0.997,2.437,2.304,3.276,3.924s1.26,3.63,1.26,6.03c0,2.232-0.42,4.152-1.26,5.76s-1.932,2.928-3.276,3.96
				c-1.344,1.032-2.855,1.794-4.535,2.286c-1.681,0.492-3.349,0.738-5.004,0.738h-9.036V39.313z M387.173,60.841
				c1.176,0,2.352-0.138,3.528-0.414c1.176-0.275,2.237-0.744,3.186-1.404s1.722-1.554,2.322-2.682c0.6-1.128,0.9-2.556,0.9-4.284
				c0-1.823-0.301-3.312-0.9-4.464c-0.601-1.152-1.374-2.052-2.322-2.7c-0.948-0.648-2.01-1.092-3.186-1.332
				c-1.177-0.239-2.353-0.36-3.528-0.36h-3.779v17.64H387.173z"/>
			<path fill="#212121" d="M409.961,39.313h4.536v25.488h-4.536V39.313z"/>
			<path fill="#212121" d="M431.706,39.313h3.924l10.98,25.488h-5.185l-2.376-5.832h-11.052l-2.304,5.832h-5.076L431.706,39.313z
				 M437.465,55.081l-3.924-10.368l-3.996,10.368H437.465z"/>
			<path fill="#212121" d="M452.729,39.313h6.012l11.845,19.08h0.071v-19.08h4.536v25.488h-5.76l-12.096-19.692h-0.072v19.692
				h-4.536V39.313z"/>
		</g>
		<g>
			<path fill="#B71C1C" d="M47.71,75.466L47.71,75.466c-0.56,0-1.1-0.223-1.491-0.615L26.284,54.894
				c-0.822-0.813-0.822-2.157,0-2.978l20.613-20.613c6.079-6.071,16.67-6.008,22.8,0.131c6.311,6.315,6.286,16.628-0.076,22.998
				l-20.42,20.415C48.797,75.242,48.262,75.466,47.71,75.466z M30.737,53.407l16.961,16.974L66.63,51.457
				c4.706-4.718,4.739-12.369,0.067-17.041c-4.541-4.546-12.352-4.609-16.843-0.131L30.737,53.407z"/>
			<path fill="#B71C1C" d="M36.306,86.861c-0.535,0-1.078-0.206-1.491-0.615L14.239,65.675c-0.404-0.396-0.615-0.931-0.615-1.491
				c0-0.56,0.223-1.095,0.615-1.491c3-3,6.985-4.651,11.248-4.651c4.432,0,8.792,1.828,11.964,5.001
				c6.492,6.496,6.644,16.915,0.341,23.209C37.385,86.655,36.85,86.861,36.306,86.861z M18.848,64.318l17.323,17.323
				c3.219-4.689,2.625-11.303-1.694-15.625C30.349,61.888,23.453,61.142,18.848,64.318z"/>
			<path fill="#B71C1C" d="M27.619,87.872c-0.088,0-0.177-0.008-0.265-0.017c-3.77-0.476-7.284-2.182-9.917-4.807
				c-2.49-2.49-4.116-5.679-4.702-9.209c-0.19-1.146,0.59-2.233,1.731-2.422c1.121-0.202,2.229,0.586,2.422,1.731
				c0.438,2.663,1.668,5.051,3.526,6.922c1.967,1.967,4.617,3.244,7.461,3.598c1.142,0.147,1.972,1.201,1.828,2.363
				C29.574,87.093,28.664,87.872,27.619,87.872z"/>
			<path fill="#B71C1C" d="M27.624,96.159c-0.055,0-0.097,0-0.156-0.008c-5.78-0.413-11.257-2.928-15.411-7.086
				c-4.154-4.162-6.673-9.626-7.099-15.419c-0.088-1.154,0.792-2.174,1.951-2.254c1.066-0.101,2.17,0.792,2.254,1.951
				c0.35,4.853,2.38,9.256,5.873,12.744c3.438,3.429,7.966,5.523,12.735,5.86c1.159,0.088,2.031,1.1,1.951,2.254
				C29.642,95.312,28.719,96.159,27.624,96.159z"/>
			<path fill="#B71C1C" d="M66.23,71.185c-0.535,0-1.078-0.206-1.491-0.615l-5.704-5.7c-0.821-0.817-0.821-2.161,0-2.978
				c0.813-0.817,2.157-0.817,2.978,0l5.704,5.7c0.813,0.817,0.813,2.157,0,2.978C67.308,70.983,66.773,71.185,66.23,71.185z"/>
			<path fill="#B71C1C" d="M84.75,101.113c-0.543,0-1.078-0.206-1.491-0.615l-22.8-22.8c-0.396-0.396-0.615-0.931-0.615-1.491
				c0-0.56,0.223-1.095,0.615-1.491L74.71,60.464c0.822-0.821,2.157-0.821,2.978,0l22.8,22.791c0.822,0.821,0.822,2.165,0,2.978
				l-14.252,14.26C85.828,100.907,85.285,101.113,84.75,101.113z M64.928,76.207L84.75,96.028l11.274-11.274L76.21,64.933
				L64.928,76.207z"/>
			<path fill="#B71C1C" d="M37.73,42.694c-0.543,0-1.078-0.206-1.491-0.615l-5.7-5.704c-0.817-0.821-0.817-2.161,0-2.978
				c0.822-0.822,2.161-0.822,2.978,0l5.696,5.7c0.822,0.822,0.822,2.17,0,2.978C38.804,42.487,38.265,42.694,37.73,42.694z"/>
			<path fill="#B71C1C" d="M24.91,41.266c-0.543,0-1.078-0.206-1.491-0.615l-22.804-22.8C0.219,17.459,0,16.92,0,16.359
				c0-0.56,0.223-1.095,0.615-1.491L14.871,0.616c0.822-0.822,2.157-0.822,2.978,0l22.796,22.8c0.4,0.396,0.615,0.931,0.615,1.491
				s-0.227,1.095-0.615,1.491L26.393,40.651C25.985,41.059,25.446,41.266,24.91,41.266z M5.089,16.364L24.91,36.181l11.274-11.269
				L16.363,5.09L5.089,16.364z"/>
		</g>
	</g>
</g>
</svg>
