<?xml version="1.0" encoding="utf-8"?>
<!-- Generator: Adobe Illustrator 17.0.0, SVG Export Plug-In . SVG Version: 6.00 Build 0)  -->
<!DOCTYPE svg PUBLIC "-//W3C//DTD SVG 1.1//EN" "http://www.w3.org/Graphics/SVG/1.1/DTD/svg11.dtd" [
	<!ENTITY ns_extend "http://ns.adobe.com/Extensibility/1.0/">
	<!ENTITY ns_ai "http://ns.adobe.com/AdobeIllustrator/10.0/">
	<!ENTITY ns_graphs "http://ns.adobe.com/Graphs/1.0/">
	<!ENTITY ns_vars "http://ns.adobe.com/Variables/1.0/">
	<!ENTITY ns_imrep "http://ns.adobe.com/ImageReplacement/1.0/">
	<!ENTITY ns_sfw "http://ns.adobe.com/SaveForWeb/1.0/">
	<!ENTITY ns_custom "http://ns.adobe.com/GenericCustomNamespace/1.0/">
	<!ENTITY ns_adobe_xpath "http://ns.adobe.com/XPath/1.0/">
]>
<svg version="1.1" id="Layer_1" xmlns:x="&ns_extend;" xmlns:i="&ns_ai;" xmlns:graph="&ns_graphs;"
	 xmlns="http://www.w3.org/2000/svg" xmlns:xlink="http://www.w3.org/1999/xlink" x="0px" y="0px" width="964.932px" height="322px"
	 viewBox="-4.932 108 964.932 322" enable-background="new -4.932 108 964.932 322" xml:space="preserve">
<metadata>
	<sfw  xmlns="&ns_sfw;">
		<slices></slices>
		<sliceSourceBounds  width="964.932" height="322" x="-5.432" y="130.5" bottomLeftOrigin="true"></sliceSourceBounds>
	</sfw>
</metadata>
<g id="Layer_1_1_" display="none">
	
		<image display="inline" overflow="visible" enable-background="new    " width="598" height="563" xlink:href="4F3E6CF0.jpg"  transform="matrix(0.4892 0 0 0.4892 333.1482 129.0216)">
	</image>
</g>
<g id="Layer_2">
	<circle fill="#19191D" cx="156.068" cy="269" r="161"/>
	
		<linearGradient id="SVGID_1_" gradientUnits="userSpaceOnUse" x1="-212.492" y1="175.7543" x2="-212.492" y2="-219.1003" gradientTransform="matrix(0.4892 0 0 -0.4892 259.2954 257.033)">
		<stop  offset="0" style="stop-color:#F11D00"/>
		<stop  offset="1" style="stop-color:#FB3B25"/>
	</linearGradient>
	<path fill="url(#SVGID_1_)" d="M155.346,171.055c-47.838,0-23.638,10.784-12.461,12.697c4.001,0.685,8.753,0.984,12.461,0.984
		s8.461-0.299,12.461-0.984C178.984,181.838,203.184,171.055,155.346,171.055z M165.295,182.572
		c-3.194,0.547-6.989,0.786-9.949,0.786s-6.755-0.239-9.949-0.786c-8.924-1.528-28.246-10.138,9.949-10.138
		S174.219,181.043,165.295,182.572z M163.876,361.587c-0.114,1.445-1.394,2.628-2.844,2.628h-10.774c-1.45,0-2.73-1.183-2.844-2.628
		l-7.608-96.259c-0.114-1.445,0.979-2.628,2.429-2.628h26.821c1.45,0,2.543,1.183,2.429,2.628L163.876,361.587z M188.291,220.692
		c0,18.195-14.75,32.945-32.945,32.945s-32.945-14.75-32.945-32.945s14.75-32.945,32.945-32.945S188.291,202.497,188.291,220.692z
		 M186.074,266.763c0-2.874,2.34-5.457,5.2-5.74l110.649-10.941c2.86-0.283,3.217,0.749,0.792,2.292l-11.187,7.122
		c-2.424,1.544-6.734,3.152-9.577,3.575l-31.502,4.688l24.076-0.628c2.873-0.075,3.24,1.127,0.816,2.67l-5.513,3.51
		c-2.424,1.544-6.744,3.075-9.599,3.403l-25.223,2.9l17.883,0.831c2.871,0.133,3.244,1.518,0.83,3.077l-0.482,0.311
		c-2.415,1.559-6.729,3.076-9.588,3.371l-20.494,2.113l13.166,1.448c2.857,0.314,3.21,1.834,0.786,3.377l-1.326,0.844
		c-2.424,1.544-6.754,2.974-9.62,3.18l-10.631,0.762l5.615,1.104c2.82,0.554,3.731,1.897,2.025,2.983
		c-1.706,1.086-5.447,1.791-8.312,1.566l-5.308-0.417l2.069,0.971c2.601,1.222,3.349,3.101,1.661,4.175
		c-1.688,1.075-5.274,1.137-7.969,0.138l-14.336-5.313c-2.535-0.939-7.015-3.545-7.256-5.952 M126.973,298.184
		c-0.241,2.407-4.722,5.013-7.256,5.952l-14.336,5.313c-2.695,0.999-6.281,0.936-7.969-0.138c-1.688-1.075-0.941-2.953,1.661-4.175
		l2.069-0.971l-5.308,0.417c-2.865,0.225-6.606-0.48-8.312-1.566c-1.706-1.086-0.795-2.429,2.025-2.983l5.615-1.104l-10.631-0.762
		c-2.867-0.206-7.196-1.637-9.62-3.18l-1.326-0.844c-2.424-1.544-2.07-3.063,0.786-3.377l13.166-1.448l-20.494-2.113
		c-2.859-0.295-7.173-1.811-9.588-3.371l-0.482-0.311c-2.415-1.559-2.041-2.944,0.83-3.077l17.883-0.831l-25.223-2.9
		c-2.855-0.328-7.175-1.86-9.599-3.403l-5.513-3.51c-2.424-1.544-2.057-2.745,0.816-2.67l24.076,0.628l-31.502-4.688
		c-2.843-0.423-7.152-2.032-9.577-3.575l-11.187-7.122c-2.424-1.544-2.068-2.575,0.792-2.292l110.649,10.941
		c2.86,0.283,5.2,2.866,5.2,5.74"/>
	<g>
		<polygon fill="#FFFFFF" points="144.861,213.517 146.409,212.486 141.66,211.763 		"/>
		<path fill="#FFFFFF" d="M155.346,192.319c-15.67,0-28.373,12.703-28.373,28.373c0,15.67,12.703,28.373,28.373,28.373
			c15.67,0,28.373-12.703,28.373-28.373C183.719,205.022,171.015,192.319,155.346,192.319z M174.04,205.569l-0.421-1.444
			l1.789,2.023l0.834,0.049c0.475,0.688,0.917,1.398,1.324,2.135l-2.714-0.453l-3.412-0.446l-0.564-1.106l-3.304,0.275l2.841-2.498
			l2.458,1.741v0.688L174.04,205.569z M155.912,246.301l-1.552-3.982l-2.995,3.612l-0.491,0.03
			c-12.124-2.032-21.373-12.549-21.372-25.25c0-4.25,1.051-8.25,2.882-11.779l2.155,4.171l3.406,1.342l4.75,2.892l-0.726,4.956
			l3.408,5.263l1.962,10.531l3.096,1.959l-1.031-3.302c0,0,1.649-3.199,1.548-2.786c-0.101,0.413,4.338-6.091,4.338-6.091
			l2.063-5.163l-5.058-4.129l-6.403-3.405l-2.992,1.342l-2.786-4.336l-2.272,0.93l-0.827-2.788l2.478-1.238l3.512,1.55l0.101-2.067
			l2.17-2.27l3.92-2.581l4.129-2.685l-1.238-2.994h-3.305l-2.581,1.859l-1.858-1.443l4.749-2.377l1.858,0.723h1.755l1.033-1.549
			l-0.132-0.086c0.506-0.03,1.009-0.077,1.526-0.077c0.475,0,0.941,0.046,1.413,0.073l-0.224,2.878l1.339,0.31l1.137-1.548
			l2.828-0.85c0.749,0.198,1.486,0.426,2.21,0.686l-0.288,0.164l1.005,0.1c0.971,0.384,1.916,0.805,2.823,1.298l-0.286,0.081
			l-0.213,1.456l-0.544,1.228l1.377,0.563l1.557-0.874l-0.829-1.808c0.717,0.438,1.412,0.906,2.08,1.409l-2.944,2.532l-1.961,1.55
			l1.132,2.476l-4.022,4.956l2.372,6.401c0,0,5.783,0.515,6.092,0.721c0.31,0.206,0.826,7.022,0.721,7.331
			c-0.103,0.309,2.17,6.607,2.17,6.607l3.405-0.826l1.972-3.248C176.161,238.724,166.913,245.969,155.912,246.301z"/>
	</g>
	
		<linearGradient id="SVGID_2_" gradientUnits="userSpaceOnUse" x1="171.7057" y1="3.0768" x2="1432.3666" y2="3.0768" gradientTransform="matrix(0.4892 0 0 -0.4892 259.2954 257.033)">
		<stop  offset="0.0056" style="stop-color:#DEE3E6"/>
		<stop  offset="0.2528" style="stop-color:#FFFDE5"/>
		<stop  offset="0.3953" style="stop-color:#F0ECD8"/>
		<stop  offset="0.5955" style="stop-color:#D6CDC1"/>
		<stop  offset="0.7865" style="stop-color:#EDEDEE"/>
		<stop  offset="1" style="stop-color:#D8D5BB"/>
	</linearGradient>
	<path fill="url(#SVGID_2_)" d="M362.874,238.553h6.93l19.391,45.013h-9.155l-4.196-10.3h-19.518l-4.069,10.3h-8.964
		L362.874,238.553z M373.046,266.4l-6.93-18.31l-7.057,18.31H373.046z M369.549,226.346h8.647l-8.964,9.155h-5.976L369.549,226.346z
		 M397.396,238.553h10.618l21.806,33.441h0.127v-33.441h8.011v45.013h-10.173l-22.252-34.522h-0.127v34.522h-8.011V238.553z
		 M491.173,280.259c-5.468,2.925-11.697,4.451-18.628,4.451c-13.86,0-23.777-9.41-23.777-23.461
		c0-14.431,9.917-23.841,23.777-23.841c6.867,0,13.034,1.462,17.737,5.659l-5.913,5.976c-2.861-2.797-7.248-4.387-11.762-4.387
		c-9.283,0-15.45,7.121-15.45,16.085c0,9.6,6.167,16.72,15.45,16.72c4.069,0,7.757-0.763,10.553-2.352v-10.618h-9.219v-7.248h17.229
		v23.016H491.173z M503.827,238.553h29.817v7.248h-21.808v11.062H532.5v7.248h-20.663v12.207h22.951v7.248h-30.962v-45.013H503.827z
		 M545.852,238.553h8.011v37.765H573v7.248h-27.148V238.553z M644.015,280.259c-5.468,2.925-11.698,4.451-18.629,4.451
		c-13.86,0-23.777-9.41-23.777-23.461c0-14.431,9.917-23.841,23.777-23.841c6.867,0,13.033,1.462,17.737,5.659l-5.913,5.976
		c-2.861-2.797-7.248-4.387-11.762-4.387c-9.283,0-15.45,7.121-15.45,16.085c0,9.6,6.167,16.72,15.45,16.72
		c4.069,0,7.757-0.763,10.553-2.352v-10.618h-9.219v-7.248h17.23v23.016H644.015z M692.718,267.035
		c0,10.872-7.82,17.675-18.12,17.675c-10.299,0-18.119-6.803-18.119-17.675v-28.482h8.011v28.229
		c0,4.449,2.416,10.299,10.108,10.299c7.693,0,10.109-5.849,10.109-10.299v-28.229h8.011V267.035z M720.311,238.553h6.929
		l19.391,45.013h-9.155l-4.196-10.3h-19.518l-4.069,10.3h-8.965L720.311,238.553z M730.483,266.4l-6.93-18.31l-7.056,18.31H730.483z
		 M754.834,238.553h15.639c8.647,0,16.785,2.797,16.785,12.906c0,6.485-3.751,11.253-10.427,12.207l11.952,19.899h-9.663
		l-10.427-19.073h-5.849v19.073h-8.011v-45.013H754.834z M769.075,257.626c4.514,0,9.79-0.38,9.79-6.23
		c0-5.341-4.959-5.977-9.092-5.977h-6.929v12.207H769.075z M798.067,238.553h17.737c11.825,0,22.887,7.248,22.887,22.506
		c0,15.386-13.034,22.506-23.841,22.506h-16.784V238.553z M812.054,276.317c10.044,0,18.246-4.323,18.246-15.258
		c0-10.934-7.121-15.258-16.911-15.258h-7.31v30.517h5.975V276.317z M849.31,238.553h8.011v45.013h-8.011V238.553z M884.913,238.553
		h6.929l19.392,45.013h-9.155l-4.196-10.3h-19.518l-4.069,10.3h-8.965L884.913,238.553z M895.086,266.4l-6.93-18.31L881.1,266.4
		H895.086z M891.589,226.346h8.646l-8.964,9.155h-5.977L891.589,226.346z M919.438,238.553h10.618l21.806,33.441h0.127v-33.441H960
		v45.013h-10.173l-22.252-34.522h-0.127v34.522h-8.011V238.553z"/>
</g>
</svg>
