<?xml version="1.0" encoding="utf-8"?>
<!-- Generator: Adobe Illustrator 17.0.0, SVG Export Plug-In . SVG Version: 6.00 Build 0)  -->
<!DOCTYPE svg PUBLIC "-//W3C//DTD SVG 1.1//EN" "http://www.w3.org/Graphics/SVG/1.1/DTD/svg11.dtd" [
	<!ENTITY ns_extend "http://ns.adobe.com/Extensibility/1.0/">
	<!ENTITY ns_ai "http://ns.adobe.com/AdobeIllustrator/10.0/">
	<!ENTITY ns_graphs "http://ns.adobe.com/Graphs/1.0/">
	<!ENTITY ns_vars "http://ns.adobe.com/Variables/1.0/">
	<!ENTITY ns_imrep "http://ns.adobe.com/ImageReplacement/1.0/">
	<!ENTITY ns_sfw "http://ns.adobe.com/SaveForWeb/1.0/">
	<!ENTITY ns_custom "http://ns.adobe.com/GenericCustomNamespace/1.0/">
	<!ENTITY ns_adobe_xpath "http://ns.adobe.com/XPath/1.0/">
]>
<svg version="1.1" xmlns:x="&ns_extend;" xmlns:i="&ns_ai;" xmlns:graph="&ns_graphs;"
	 xmlns="http://www.w3.org/2000/svg" xmlns:xlink="http://www.w3.org/1999/xlink" x="0px" y="0px" viewBox="0 0 1144.741 1144.741" enable-background="new 0 0 1144.741 1144.741" xml:space="preserve">
<metadata>
	<sfw  xmlns="&ns_sfw;">
		<slices></slices>
		<sliceSourceBounds  width="2248.566" height="1270.747" x="-236.333" y="-1098.997" bottomLeftOrigin="true"></sliceSourceBounds>
	</sfw>
</metadata>
<g id="Layer_1" display="none">
	
		<image display="inline" overflow="visible" width="598" height="563" xlink:href="4F3E6CF0.jpg"  transform="matrix(1 0 0 1 272.1789 263.7434)">
	</image>
</g>
<g id="Layer_2">
	<circle fill="#19191D" cx="572.37" cy="572.37" r="572.37"/>
	<linearGradient id="SVGID_1_" gradientUnits="userSpaceOnUse" x1="570.1789" y1="252.6676" x2="570.1789" y2="838.8192">
		<stop  offset="0" style="stop-color:#F11D00"/>
		<stop  offset="1" style="stop-color:#FB3B25"/>
	</linearGradient>
	<path fill="url(#SVGID_1_)" d="M570.179,252.668c-145.167,0-71.73,32.723-37.814,38.53c12.14,2.078,26.562,2.986,37.814,2.986
		s25.674-0.908,37.814-2.986C641.909,285.39,715.346,252.668,570.179,252.668z M600.37,287.615
		c-9.693,1.66-21.208,2.384-30.191,2.384c-8.983,0-20.499-0.725-30.191-2.384c-27.079-4.636-85.712-30.763,30.191-30.763
		S627.449,282.978,600.37,287.615z M596.065,830.844c-0.347,4.386-4.23,7.975-8.63,7.975H554.74c-4.4,0-8.284-3.589-8.63-7.975
		l-23.087-292.102c-0.347-4.386,2.97-7.975,7.37-7.975h81.39c4.4,0,7.716,3.589,7.37,7.975L596.065,830.844z M670.151,403.293
		c0,55.213-44.759,99.972-99.972,99.972s-99.972-44.759-99.972-99.972s44.759-99.972,99.972-99.972S670.151,348.079,670.151,403.293
		z M663.426,543.096c0-8.721,7.101-16.559,15.78-17.417l335.767-33.201c8.679-0.858,9.761,2.272,2.404,6.955l-33.946,21.611
		c-7.357,4.684-20.434,9.566-29.061,10.849l-95.595,14.225l73.059-1.906c8.718-0.227,9.832,3.419,2.475,8.102l-16.729,10.65
		c-7.357,4.684-20.465,9.33-29.129,10.327l-76.541,8.799l54.265,2.523c8.712,0.405,9.845,4.607,2.519,9.338l-1.463,0.944
		c-7.327,4.731-20.419,9.334-29.094,10.228l-62.191,6.411l39.953,4.394c8.669,0.953,9.742,5.565,2.385,10.249l-4.024,2.562
		c-7.357,4.684-20.494,9.026-29.193,9.649l-32.259,2.312l17.039,3.349c8.558,1.682,11.323,5.755,6.145,9.051
		c-5.178,3.296-16.528,5.435-25.223,4.752l-16.106-1.264l6.278,2.948c7.894,3.707,10.162,9.409,5.039,12.67
		c-5.122,3.261-16.005,3.45-24.182,0.419l-43.504-16.121c-7.691-2.85-21.286-10.756-22.018-18.061 M484.081,638.443
		c-0.732,7.305-14.328,15.211-22.018,18.061l-43.504,16.121c-8.178,3.03-19.06,2.841-24.182-0.419
		c-5.122-3.261-2.855-8.962,5.039-12.67l6.278-2.948l-16.106,1.264c-8.695,0.683-20.045-1.456-25.223-4.752
		c-5.178-3.296-2.413-7.37,6.145-9.051l17.039-3.349l-32.259-2.312c-8.699-0.624-21.836-4.966-29.193-9.649l-4.024-2.562
		c-7.357-4.684-6.283-9.295,2.385-10.249l39.953-4.394l-62.191-6.411c-8.675-0.894-21.768-5.497-29.094-10.228l-1.463-0.944
		c-7.327-4.731-6.193-8.933,2.519-9.338l54.265-2.523l-76.541-8.799c-8.664-0.996-21.772-5.643-29.129-10.327l-16.729-10.65
		c-7.357-4.684-6.243-8.329,2.475-8.102l73.059,1.906l-95.595-14.225c-8.626-1.284-21.704-6.166-29.061-10.849l-33.946-21.611
		c-7.357-4.684-6.275-7.813,2.404-6.955l335.767,33.201c8.679,0.858,15.78,8.696,15.78,17.417"/>
	<g>
		<polygon fill="#FFFFFF" points="538.362,381.521 543.061,378.391 528.648,376.197 		"/>
		<path fill="#FFFFFF" d="M570.179,317.195c-47.55,0-86.098,38.547-86.098,86.098c0,47.55,38.547,86.098,86.098,86.098
			c47.55,0,86.098-38.547,86.098-86.098C656.277,355.742,617.729,317.195,570.179,317.195z M626.908,357.401l-1.279-4.383
			l5.429,6.138l2.53,0.148c1.442,2.087,2.784,4.243,4.018,6.478l-8.236-1.376l-10.353-1.354l-1.711-3.357l-10.027,0.835l8.621-7.579
			l7.459,5.284v2.087L626.908,357.401z M571.897,481.005l-4.709-12.084l-9.088,10.962l-1.489,0.09
			c-36.792-6.166-64.856-38.079-64.854-76.622c0-12.897,3.189-25.034,8.747-35.743l6.539,12.656l10.336,4.071l14.413,8.775
			l-2.202,15.039l10.342,15.972l5.953,31.957l9.395,5.944l-3.13-10.02c0,0,5.003-9.708,4.697-8.454
			c-0.306,1.253,13.164-18.483,13.164-18.483l6.259-15.667l-15.348-12.53l-19.43-10.334l-9.08,4.071l-8.454-13.158l-6.893,2.822
			l-2.509-8.46l7.519-3.757l10.656,4.703l0.306-6.271l6.585-6.887l11.896-7.833l12.53-8.147l-3.757-9.085h-10.028l-7.833,5.642
			l-5.637-4.38l14.411-7.212l5.639,2.195h5.325l3.136-4.702l-0.401-0.26c1.534-0.09,3.062-0.233,4.63-0.233
			c1.442,0,2.855,0.14,4.287,0.221l-0.681,8.733l4.063,0.94l3.45-4.697l8.581-2.58c2.272,0.601,4.51,1.292,6.705,2.083l-0.875,0.497
			l3.049,0.303c2.945,1.164,5.814,2.442,8.567,3.94l-0.867,0.247l-0.647,4.417l-1.651,3.726l4.178,1.708l4.724-2.653l-2.515-5.485
			c2.177,1.329,4.284,2.75,6.312,4.277l-8.934,7.683l-5.95,4.703l3.436,7.513l-12.204,15.039l7.198,19.423
			c0,0,17.549,1.562,18.485,2.188c0.94,0.626,2.507,21.307,2.188,22.246c-0.314,0.939,6.584,20.048,6.584,20.048l10.334-2.507
			l5.985-9.857C633.343,458.011,605.281,479.998,571.897,481.005z"/>
	</g>
	<linearGradient id="SVGID_2_" gradientUnits="userSpaceOnUse" x1="276.8122" y1="919.2161" x2="858.8049" y2="919.2161">
		<stop  offset="0.0056" style="stop-color:#DEE3E6"/>
		<stop  offset="0.2528" style="stop-color:#FFFDE5"/>
		<stop  offset="0.3953" style="stop-color:#F0ECD8"/>
		<stop  offset="0.5955" style="stop-color:#D6CDC1"/>
		<stop  offset="0.7865" style="stop-color:#EDEDEE"/>
		<stop  offset="1" style="stop-color:#D8D5BB"/>
	</linearGradient>
	<path fill="url(#SVGID_2_)" d="M295.292,903.197h6.54l18.299,42.479h-8.64l-3.96-9.72h-18.419l-3.84,9.72h-8.459L295.292,903.197z
		 M304.891,929.476l-6.54-17.279l-6.66,17.279H304.891z M301.591,891.677h8.16l-8.459,8.64h-5.64L301.591,891.677z M327.871,903.197
		h10.02l20.579,31.559h0.12v-31.559h7.56v42.479h-9.6l-20.999-32.579h-0.12v32.579h-7.56V903.197z M416.369,942.555
		c-5.16,2.76-11.039,4.2-17.579,4.2c-13.08,0-22.439-8.88-22.439-22.14c0-13.619,9.359-22.499,22.439-22.499
		c6.48,0,12.3,1.38,16.739,5.34l-5.58,5.64c-2.7-2.64-6.84-4.14-11.1-4.14c-8.76,0-14.58,6.72-14.58,15.18
		c0,9.06,5.82,15.779,14.58,15.779c3.84,0,7.32-0.72,9.959-2.22v-10.02h-8.7v-6.84h16.259V942.555z M428.311,903.197h28.139v6.84
		h-20.58v10.439h19.5v6.84h-19.5v11.52h21.659v6.84h-29.219V903.197z M467.97,903.197h7.56v35.639h18.06v6.84H467.97V903.197z
		 M560.608,942.555c-5.16,2.76-11.04,4.2-17.58,4.2c-13.08,0-22.439-8.88-22.439-22.14c0-13.619,9.359-22.499,22.439-22.499
		c6.48,0,12.299,1.38,16.739,5.34l-5.58,5.64c-2.7-2.64-6.84-4.14-11.1-4.14c-8.76,0-14.58,6.72-14.58,15.18
		c0,9.06,5.82,15.779,14.58,15.779c3.84,0,7.32-0.72,9.959-2.22v-10.02h-8.7v-6.84h16.26V942.555z M606.569,930.075
		c0,10.26-7.38,16.68-17.1,16.68c-9.719,0-17.099-6.42-17.099-16.68v-26.879h7.56v26.64c0,4.199,2.28,9.719,9.539,9.719
		c7.26,0,9.54-5.52,9.54-9.719v-26.64h7.56V930.075z M632.609,903.197h6.539l18.3,42.479h-8.64l-3.96-9.72h-18.419l-3.84,9.72h-8.46
		L632.609,903.197z M642.208,929.476l-6.54-17.279l-6.659,17.279H642.208z M665.189,903.197h14.759c8.16,0,15.84,2.64,15.84,12.18
		c0,6.12-3.54,10.62-9.84,11.52l11.279,18.779h-9.119l-9.84-17.999h-5.52v17.999h-7.56V903.197z M678.628,921.196
		c4.26,0,9.239-0.359,9.239-5.879c0-5.04-4.68-5.641-8.58-5.641h-6.539v11.52H678.628z M705.988,903.197h16.739
		c11.159,0,21.599,6.84,21.599,21.239c0,14.52-12.3,21.239-22.499,21.239h-15.839V903.197z M719.188,938.835
		c9.479,0,17.219-4.08,17.219-14.399s-6.72-14.399-15.959-14.399h-6.899v28.799H719.188z M754.347,903.197h7.56v42.479h-7.56
		V903.197z M787.946,903.197h6.539l18.3,42.479h-8.64l-3.96-9.72h-18.419l-3.84,9.72h-8.46L787.946,903.197z M797.546,929.476
		l-6.54-17.279l-6.659,17.279H797.546z M794.246,891.677h8.159l-8.459,8.64h-5.641L794.246,891.677z M820.527,903.197h10.02
		l20.579,31.559h0.12v-31.559h7.56v42.479h-9.6l-20.999-32.579h-0.12v32.579h-7.56V903.197z"/>
</g>
</svg>
