<?xml version="1.0" encoding="utf-8"?>
<!-- Generator: Adobe Illustrator 17.0.0, SVG Export Plug-In . SVG Version: 6.00 Build 0)  -->
<!DOCTYPE svg PUBLIC "-//W3C//DTD SVG 1.1//EN" "http://www.w3.org/Graphics/SVG/1.1/DTD/svg11.dtd" [
	<!ENTITY ns_extend "http://ns.adobe.com/Extensibility/1.0/">
	<!ENTITY ns_ai "http://ns.adobe.com/AdobeIllustrator/10.0/">
	<!ENTITY ns_graphs "http://ns.adobe.com/Graphs/1.0/">
	<!ENTITY ns_vars "http://ns.adobe.com/Variables/1.0/">
	<!ENTITY ns_imrep "http://ns.adobe.com/ImageReplacement/1.0/">
	<!ENTITY ns_sfw "http://ns.adobe.com/SaveForWeb/1.0/">
	<!ENTITY ns_custom "http://ns.adobe.com/GenericCustomNamespace/1.0/">
	<!ENTITY ns_adobe_xpath "http://ns.adobe.com/XPath/1.0/">
]>
<svg version="1.1" id="Layer_1" xmlns:x="&ns_extend;" xmlns:i="&ns_ai;" xmlns:graph="&ns_graphs;"
	 xmlns="http://www.w3.org/2000/svg" xmlns:xlink="http://www.w3.org/1999/xlink" x="0px" y="0px" width="27.037px"
	 height="55.63px" viewBox="0 0 27.037 55.63" enable-background="new 0 0 27.037 55.63" xml:space="preserve">
<metadata>
	<sfw  xmlns="&ns_sfw;">
		<slices></slices>
		<sliceSourceBounds  width="27.036" height="55.63" y="222.685" x="235.982" bottomLeftOrigin="true"></sliceSourceBounds>
	</sfw>
</metadata>
<path fill="#e91d26" d="M24.739,7.852H6.072V1.926C6.072,0.889,5.405,0,4.591,0h-0.37c-0.814,0-1.48,0.889-1.48,1.926v5.926H2.297
	C0.964,7.852,0,9.111,0,10.815v41.852c0,1.704,0.963,2.963,2.296,2.963H24.74c1.333,0,2.296-1.259,2.296-2.963V10.815
	C27.035,9.111,26.072,7.852,24.739,7.852z M23.702,52.223H3.257V11.26h20.37v40.963H23.702z M5.627,26.963v-10.74
	c0-1.111,0.667-1.926,1.556-1.926h12.296c0.889,0,1.556,0.889,1.556,1.926v10.814c0,1.111-0.667,1.926-1.556,1.926H7.183
	C6.294,28.963,5.627,28.074,5.627,26.963z M10.294,38.963v0.222c0,0.815-0.667,1.481-1.481,1.481H7.628
	c-0.815,0-1.481-0.667-1.481-1.481v-0.222c0-0.815,0.667-1.481,1.481-1.481h1.185C9.627,37.482,10.294,38.148,10.294,38.963z
	 M15.627,38.963v0.222c0,0.815-0.667,1.481-1.481,1.481h-1.185c-0.815,0-1.481-0.667-1.481-1.481v-0.222
	c0-0.815,0.667-1.481,1.481-1.481h1.185C14.887,37.482,15.627,38.148,15.627,38.963z M20.887,38.963v0.222
	c0,0.815-0.667,1.481-1.481,1.481h-1.185c-0.815,0-1.481-0.667-1.481-1.481v-0.222c0-0.815,0.667-1.481,1.481-1.481h1.185
	C20.22,37.482,20.887,38.148,20.887,38.963z M10.294,43.408v0.222c0,0.815-0.667,1.481-1.481,1.481H7.628
	c-0.815,0-1.481-0.667-1.481-1.481v-0.222c0-0.815,0.667-1.481,1.481-1.481h1.185C9.627,41.852,10.294,42.593,10.294,43.408z
	 M15.627,43.408v0.222c0,0.815-0.667,1.481-1.481,1.481h-1.185c-0.815,0-1.481-0.667-1.481-1.481v-0.222
	c0-0.815,0.667-1.481,1.481-1.481h1.185C14.887,41.852,15.627,42.593,15.627,43.408z M20.887,43.408v0.222
	c0,0.815-0.667,1.481-1.481,1.481h-1.185c-0.815,0-1.481-0.667-1.481-1.481v-0.222c0-0.815,0.667-1.481,1.481-1.481h1.185
	C20.22,41.852,20.887,42.593,20.887,43.408z M10.294,47.704v0.222c0,0.815-0.667,1.481-1.481,1.481H7.628
	c-0.815,0-1.481-0.667-1.481-1.481v-0.222c0-0.815,0.667-1.481,1.481-1.481h1.185C9.627,46.223,10.294,46.889,10.294,47.704z
	 M15.627,47.704v0.222c0,0.815-0.667,1.481-1.481,1.481h-1.185c-0.815,0-1.481-0.667-1.481-1.481v-0.222
	c0-0.815,0.667-1.481,1.481-1.481h1.185C14.887,46.223,15.627,46.889,15.627,47.704z M20.887,47.704v0.222
	c0,0.815-0.667,1.481-1.481,1.481h-1.185c-0.815,0-1.481-0.667-1.481-1.481v-0.222c0-0.815,0.667-1.481,1.481-1.481h1.185
	C20.22,46.223,20.887,46.889,20.887,47.704z M5.627,33.408c0-0.889,0.519-1.63,1.185-1.63h2.667c0.667,0,1.185,0.741,1.185,1.63
	s-0.519,1.63-1.185,1.63H6.813C6.146,35.037,5.627,34.297,5.627,33.408z M21.035,33.408c0,0.889-0.519,1.63-1.185,1.63h-2.667
	c-0.667,0-1.185-0.741-1.185-1.63s0.519-1.63,1.185-1.63h2.667C20.516,31.704,21.035,32.445,21.035,33.408z"/>
</svg>
