<svg xmlns="http://www.w3.org/2000/svg" xmlns:xlink="http://www.w3.org/1999/xlink" version="1.1" id="Layer_1" x="0px" y="0px" viewBox="4.5 -9.0 90.0 100" enable-background="new 0 0 90 90" xml:space="preserve" height="100px" width="100px">
<path fill="#e91d26" d="M50.9,38.7l-3.6,4.8c0.3,0.4,0.4,1,0.4,1.5c0,1.6-1.3,2.8-2.8,2.8s-2.8-1.3-2.8-2.8s1.3-2.8,2.8-2.8c0.3,0,0.5,0.1,0.8,0.1  l3.6-4.8c-1.3-0.7-2.8-1.2-4.3-1.2c-4.8,0-8.7,3.9-8.7,8.7s3.9,8.7,8.7,8.7s8.7-3.9,8.7-8.7C53.7,42.5,52.6,40.3,50.9,38.7z"/>
<path fill="#e91d26" d="M55.4,32.7l-3.9,5.2c1.9,1.8,3.1,4.3,3.1,7.1c0,5.3-4.3,9.7-9.7,9.7s-9.7-4.3-9.7-9.7s4.3-9.7,9.7-9.7  c1.8,0,3.5,0.5,4.9,1.4l3.9-5.2c-2.5-1.7-5.6-2.6-8.8-2.6c-8.9,0-16.1,7.2-16.1,16.1S36.1,61.1,45,61.1S61.1,53.9,61.1,45  C61.1,40.1,58.9,35.7,55.4,32.7z"/>
<path fill="#e91d26" d="M71.4,11.3l-2,2.7c9.2,7.2,15.1,18.5,15.1,31c0,21.8-17.7,39.5-39.5,39.5S5.5,66.8,5.5,45S23.2,5.5,45,5.5  c8.5,0,16.4,2.7,22.8,7.3l2-2.7c-7-5-15.6-7.9-24.8-7.9C21.3,2.2,2.2,21.3,2.2,45S21.3,87.8,45,87.8S87.8,68.7,87.8,45  C87.8,31.3,81.4,19.1,71.4,11.3z"/>
<path fill="#e91d26" d="M33.7,27.9c-1.3,0-2.4-0.6-3.2-1.5c-5.5,4.3-9.1,11-9.1,18.6C21.4,58,32,68.6,45,68.6S68.6,58,68.6,45  c0-7.4-3.4-13.9-8.7-18.3L56,31.9c3.7,3.1,6.1,7.8,6.1,13.1c0,9.4-7.7,17.1-17.1,17.1S27.9,54.4,27.9,45S35.6,27.9,45,27.9  c3.5,0,6.7,1,9.4,2.8l3.9-5.2c-3.8-2.6-8.4-4.1-13.3-4.1c-2.5,0-5,0.4-7.2,1.1c0.1,0.4,0.2,0.7,0.2,1.1C37.9,26,36,27.9,33.7,27.9z"/>
<g>
	<path fill="#e91d26" d="M68.8,14.8L64.9,20c6.8,5.3,11.2,13.3,12,22.4c1.1,0.2,1.9,1.1,1.9,2.2c0,1.1-0.8,2-1.8,2.2C76,63.7,62,77,45,77   c-17.6,0-32-14.3-32-32s14.4-32,32-32c1.3,0,2.5,0.1,3.8,0.2c0.3-0.9,1.1-1.5,2.1-1.5c1.2,0,2.2,1,2.2,2.2V14   c3.8,1,7.3,2.6,10.4,4.8l3.9-5.2C60.9,9.1,53.3,6.5,45,6.5C23.8,6.5,6.5,23.8,6.5,45S23.8,83.5,45,83.5S83.5,66.2,83.5,45   C83.5,32.8,77.7,21.8,68.8,14.8z"/>
	<path fill="#e91d26" d="M74.2,44.6c0-1,0.7-1.9,1.6-2.2c-0.7-8.8-5-16.5-11.6-21.6L60.4,26c5.5,4.5,9.1,11.4,9.1,19.1c0,13.6-11,24.6-24.6,24.6   c-13.6,0-24.6-11-24.6-24.6c0-8,3.8-15,9.6-19.5c-0.3-0.6-0.5-1.2-0.5-1.9c0-2.3,1.9-4.2,4.2-4.2c1.6,0,3,0.9,3.7,2.3   c2.4-0.8,4.9-1.2,7.5-1.2c5.1,0,9.9,1.6,13.9,4.3l3.9-5.2c-3-2.1-6.4-3.7-10.1-4.6c-0.4,0.6-1.1,1.1-1.9,1.1c-1.1,0-2-0.8-2.1-1.8   C47.5,14,46.3,14,45,14c-17.1,0-31,13.9-31,31s13.9,31,31,31c16.5,0,30-13,30.9-29.2C75,46.5,74.2,45.6,74.2,44.6z"/>
</g>
</svg>