<svg xmlns:dc="http://purl.org/dc/elements/1.1/" xmlns:cc="http://creativecommons.org/ns#" xmlns:rdf="http://www.w3.org/1999/02/22-rdf-syntax-ns#" xmlns:svg="http://www.w3.org/2000/svg" xmlns="http://www.w3.org/2000/svg" xmlns:sodipodi="http://sodipodi.sourceforge.net/DTD/sodipodi-0.dtd" xmlns:inkscape="http://www.inkscape.org/namespaces/inkscape" version="1.1" id="Layer_1" x="0px" y="0px" width="100.0px" height="100px" viewBox="7.5 -15.0 150.0 202.5" enable-background="new 0 0 33.333 100" xml:space="preserve" inkscape:version="0.48.3.1 r9886" sodipodi:docname="Pin_with_circles10.svg"><metadata id="metadata9"><rdf:RDF><cc:Work rdf:about=""><dc:format>image/svg+xml</dc:format><dc:type rdf:resource="http://purl.org/dc/dcmitype/StillImage"/><dc:title/></cc:Work></rdf:RDF></metadata><defs id="defs7"/><sodipodi:namedview pagecolor="#ffffff" bordercolor="#666666" borderopacity="1" objecttolerance="10" gridtolerance="10" guidetolerance="10" inkscape:pageopacity="0" inkscape:pageshadow="2" inkscape:window-width="1855" inkscape:window-height="1056" id="namedview5" showgrid="false" inkscape:zoom="4" inkscape:cx="-64.981445" inkscape:cy="52.663684" inkscape:window-x="65" inkscape:window-y="24" inkscape:window-maximized="1" inkscape:current-layer="Layer_1"/>
<path style="fill:#292929" d="m 74.999996,10.091045 c -15.371398,0 -27.829804,10.303583 -27.829804,29.698595 0,19.376211 27.775942,89.96899 27.829804,90.10595 L 74.69695,125.50141 70.050231,55.49757 C 63.591544,53.411274 58.938512,47.396121 58.938512,40.24421 c 0,-8.879455 7.183139,-16.111993 16.061484,-16.111993 8.87945,0 16.060366,7.233642 16.061486,16.111993 0,7.135351 -4.629034,13.151608 -11.061212,15.25336 l -5.000274,74.39802 c 0.05387,-0.13695 27.829814,-70.728487 27.829814,-90.10595 0,-19.396265 -12.457416,-29.698595 -27.829814,-29.698595 z" id="path3-8" inkscape:connector-curvature="0"/><path style="fill:#292929" d="m 80.34375,119.6875 -0.65625,1.65625 c 29.51677,0.24005 53.375,3.85967 53.375,8.0625 0,4.35827 -25.19733,7.84375 -56.25,7.84375 -31.052678,0 -56.21875,-3.48548 -56.21875,-7.84375 0,-4.02619 22.182559,-7.48524 49.9375,-7.96875 L 69.875,119.84375 c -36.552005,0.53874 -68.8125,4.75917 -68.8125,9.96875 0,5.576 36.177094,10.09375 75.90625,10.09375 39.72918,0 71.96875,-4.51775 71.96875,-10.09375 0,-5.39734 -30.6279,-9.84926 -68.59375,-10.125 z" id="path3013" inkscape:connector-curvature="0" sodipodi:nodetypes="ccsssccsssc"/><path style="fill:#292929" d="m 70.25,123.0625 c -23.431528,0.3323 -41.71875,3.12315 -41.71875,6.5 0,3.60199 20.804617,6.53125 46.46875,6.53125 25.66412,0 46.46875,-2.92926 46.46875,-6.53125 0,-3.41832 -18.7484,-6.22435 -42.59375,-6.5 l -0.46875,1.28125 c 18.998341,0.23411 33.90625,2.45997 33.90625,5.1875 0,2.88415 -16.669183,5.1875 -37.21875,5.1875 -20.549573,0 -37.21875,-2.30335 -37.21875,-5.1875 0,-2.71719 14.79232,-4.93922 33.6875,-5.1875 L 71.09375,123 c -0.289273,0.003 -0.556007,0.0584 -0.84375,0.0625 z" id="path3009" inkscape:connector-curvature="0" sodipodi:nodetypes="ssssccsssccs"/>
</svg>