<svg xmlns="http://www.w3.org/2000/svg" xmlns:xlink="http://www.w3.org/1999/xlink" version="1.1" id="Ebene_1" x="0px" y="0px" width="100px" height="100px" viewBox="5.0 -10.0 100.0 135.0" enable-background="new 0 0 100 100" xml:space="preserve">
<path d="M55,76H45c-0.6,0-1-0.4-1-1s0.4-1,1-1h10c0.6,0,1,0.4,1,1S55.6,76,55,76z"/>
<g>
	<path d="M52.7,43.2c0.2,0.4,0.4,0.8,0.4,1.3c0,1.4-1.2,2.6-2.6,2.6c-1.4,0-2.6-1.2-2.6-2.6c0-0.5,0.1-0.9,0.4-1.3   c-2.5,0.6-4,1.9-4.6,2.7c1.4,2,3.9,4.1,6.8,4.1h0c3,0,5.4-2.1,6.8-4.1C56.7,45.2,55.2,43.8,52.7,43.2z"/>
	<path d="M18.5,25v43h63V25H18.5z M58.6,30.5c0.3-0.5,0.9-0.6,1.4-0.4c0.5,0.3,0.6,0.9,0.4,1.4c-0.2,0.3-0.5,0.5-0.9,0.5   c-0.2,0-0.3,0-0.5-0.1C58.5,31.6,58.3,30.9,58.6,30.5z M59.4,46.4c-1.7,2.7-4.9,5.6-8.9,5.6h0c-4.1,0-7.3-2.9-8.9-5.6   c-0.2-0.3-0.2-0.7,0-1c0.1-0.2,2.8-4.4,8.9-4.4s8.8,4.2,8.9,4.4C59.6,45.7,59.6,46.1,59.4,46.4z M56.6,33.9   c0.3-0.5,0.9-0.6,1.4-0.4c0.5,0.3,0.6,0.9,0.4,1.4c-0.2,0.3-0.5,0.5-0.9,0.5c-0.2,0-0.3,0-0.5-0.1C56.5,35,56.3,34.4,56.6,33.9z    M54.6,37.4c0.3-0.5,0.9-0.6,1.4-0.4c0.5,0.3,0.6,0.9,0.4,1.4c-0.2,0.3-0.5,0.5-0.9,0.5c-0.2,0-0.3-0.1-0.5-0.1   C54.5,38.5,54.3,37.9,54.6,37.4z M49.8,28.5c0.4-0.4,1-0.4,1.4,0c0.2,0.2,0.3,0.4,0.3,0.7c0,0.3-0.1,0.5-0.3,0.7   c-0.2,0.2-0.5,0.3-0.7,0.3c-0.3,0-0.5-0.1-0.7-0.3c-0.2-0.2-0.3-0.5-0.3-0.7C49.5,29,49.6,28.7,49.8,28.5z M50.5,32.1   c0.5,0,1,0.5,1,1c0,0.6-0.5,1-1,1c-0.6,0-1-0.4-1-1C49.5,32.5,49.9,32.1,50.5,32.1z M50.5,35.9c0.5,0,1,0.4,1,1c0,0.5-0.5,1-1,1   c-0.6,0-1-0.5-1-1C49.5,36.4,49.9,35.9,50.5,35.9z M45,37c0.5-0.3,1.1-0.1,1.4,0.4c0.3,0.5,0.1,1.1-0.4,1.4   c-0.1,0.1-0.3,0.1-0.5,0.1c-0.3,0-0.7-0.2-0.9-0.5C44.4,37.9,44.5,37.3,45,37z M43,33.6c0.5-0.3,1.1-0.1,1.4,0.4   c0.3,0.5,0.1,1.1-0.4,1.4c-0.2,0.1-0.3,0.1-0.5,0.1c-0.3,0-0.7-0.2-0.9-0.5C42.4,34.4,42.5,33.8,43,33.6z M41,30.1   c0.5-0.3,1.1-0.1,1.4,0.4c0.3,0.5,0.1,1.1-0.4,1.4c-0.1,0.1-0.3,0.1-0.5,0.1c-0.3,0-0.7-0.2-0.9-0.5C40.4,31,40.5,30.4,41,30.1z    M42.3,62.6c-0.2,0.3-0.5,0.5-0.9,0.5c-0.2,0-0.3,0-0.5-0.1c-0.5-0.3-0.6-0.9-0.4-1.4c0.3-0.5,0.9-0.6,1.4-0.4   C42.4,61.5,42.6,62.2,42.3,62.6z M44.3,59.2c-0.2,0.3-0.5,0.5-0.9,0.5c-0.2,0-0.4,0-0.5-0.1c-0.5-0.3-0.6-0.9-0.4-1.4   c0.3-0.5,0.9-0.6,1.4-0.4C44.4,58.1,44.6,58.7,44.3,59.2z M46.3,55.7c-0.2,0.3-0.5,0.5-0.9,0.5c-0.2,0-0.3,0-0.5-0.1   c-0.5-0.3-0.6-0.9-0.4-1.4c0.3-0.5,0.9-0.7,1.4-0.4C46.4,54.6,46.6,55.2,46.3,55.7z M51.2,64.5c-0.2,0.2-0.5,0.3-0.7,0.3   c-0.3,0-0.5-0.1-0.7-0.3c-0.2-0.2-0.3-0.5-0.3-0.7s0.1-0.5,0.3-0.7c0.4-0.4,1-0.4,1.4,0c0.2,0.2,0.3,0.5,0.3,0.7   S51.4,64.3,51.2,64.5z M50.5,60.9c-0.6,0-1-0.5-1-1c0-0.6,0.4-1,1-1c0.5,0,1,0.4,1,1C51.5,60.5,51,60.9,50.5,60.9z M50.5,57.1   c-0.6,0-1-0.5-1-1s0.4-1,1-1c0.5,0,1,0.5,1,1S51,57.1,50.5,57.1z M56,56.1c-0.2,0.1-0.3,0.1-0.5,0.1c-0.3,0-0.7-0.2-0.9-0.5   c-0.3-0.5-0.1-1.1,0.4-1.4c0.5-0.3,1.1-0.1,1.4,0.4C56.7,55.2,56.5,55.8,56,56.1z M58,59.5c-0.2,0.1-0.3,0.1-0.5,0.1   c-0.3,0-0.7-0.2-0.9-0.5c-0.3-0.5-0.1-1.1,0.4-1.4c0.5-0.3,1.1-0.1,1.4,0.4C58.7,58.7,58.5,59.3,58,59.5z M60,63   c-0.2,0.1-0.3,0.1-0.5,0.1c-0.3,0-0.7-0.2-0.9-0.5c-0.3-0.5-0.1-1.1,0.4-1.4c0.5-0.3,1.1-0.1,1.4,0.4C60.7,62.1,60.5,62.7,60,63z"/>
</g>
<path d="M91.6,70.5h-5.8c0.1-0.3,0.2-0.6,0.2-1v-46c0-1.7-1.3-3-3-3H17c-1.7,0-3,1.3-3,3v46c0,0.4,0.1,0.7,0.2,1H8.4  c-1,0-2.9,0-2.9,3c0,1.2,0.6,2.7,1.5,3.9c1.1,1.4,2.6,2.1,4.2,2.1l77.5,0c3.6,0,5.8-3.9,5.8-6C94.5,71.5,93.5,70.5,91.6,70.5z   M16,69.5v-46c0-0.6,0.4-1,1-1h66c0.6,0,1,0.4,1,1v46c0,0.6-0.4,1-1,1H17C16.4,70.5,16,70.1,16,69.5z M88.7,77.5l-77.4,0l-0.1,0  c-1.3,0-2.2-0.9-2.6-1.4c-0.6-0.8-1.1-1.8-1.1-2.6c0-0.8,0.1-0.9,0.1-0.9c0.1-0.1,0.5-0.1,0.8-0.1H17h66h8.6c0.7,0,0.9,0,0.9,1  C92.5,74.7,91,77.5,88.7,77.5z"/>
</svg>