<svg xmlns="http://www.w3.org/2000/svg" xmlns:xlink="http://www.w3.org/1999/xlink" version="1.1" x="0px" y="0px" viewBox="5 0 80.0 80" enable-background="new 0 0 90 90.2" xml:space="preserve" height="100px" width="100px">
<g id="Calque_1">
</g>
<g id="Calque_2">
</g>
<g id="Layer_1">
	<path fill="#E91D26" d="M61.6,51.5h-3v-4.4c6-4.3,10.1-12.7,10.1-20.8c0-4.5-1.2-8.6-3.4-12.2l-0.6-1l-0.6-0.8C59.8,6.4,52.8,2.6,45,2.6   c-13.1,0-23.7,10.6-23.7,23.7c0,3.7,0.9,7.5,2.4,10.9c-0.4-0.4-0.7-0.7-1.1-1.1c-1.1-1.3-1.7-2.7-2.1-4c0,0,0,0,0,0v-8   c0-0.3-0.1-0.6-0.2-0.9C21.8,10.7,32.3,1.2,45,1.2c12.9,0,23.6,9.9,24.8,22.4c0,0.1,0,0.2,0,0.3v8c0,1.2,1,2.1,2.1,2.1   c1.2,0,2.1-1,2.1-2.1v-8c0-1.2-1-2.1-2.1-2.1c-0.5,0-0.9,0.2-1.3,0.4C68.8,9.8,58,0.2,45,0.2c-12.9,0-23.7,9.5-25.6,21.9   c-0.3-0.2-0.6-0.3-1-0.3c-1.2,0-2.1,1-2.1,2.1v8c0,1.2,1,2.1,2.1,2.1c0.6,0,1.2-0.3,1.6-0.7c0.4,1,1,2.1,1.9,3.2   c0.8,1,1.8,1.9,2.9,2.8c1.7,3.1,4,5.8,6.7,7.7v4.4h-3c-9.2,0-16.6,7.4-16.6,16.6v16.6c0,3.1,2.5,5.5,5.5,5.5h55.3   c3.1,0,5.5-2.5,5.5-5.5V68.1C78.2,58.9,70.7,51.5,61.6,51.5z M39.9,43.8c0.2,0.9,1,1.6,2,1.6h3.8c1.1,0,2-0.9,2-2c0-1.1-0.9-2-2-2   h-3.8c-0.9,0-1.6,0.6-1.9,1.4c-3.8-0.2-7-0.8-9.7-1.8c-0.1-0.1-0.1-0.1-0.2-0.2h0c-2.6-3.2-4.4-7.5-4.9-11.8   c3.5-2.4,6.5-10.6,15.9-11.4c3.8-0.3,12.1,3.4,16.9-2c-2.3,2.6,3.2,7.7,7.3,10.2c0,0.1,0,0.3,0,0.4c0,5.2-2,10.6-5.1,14.5h0   c-0.1,0.1-0.2,0.3-0.3,0.4c-1.2,1.4-2.4,2.5-3.8,3.4L55.2,45c-2.2,1.2-4.8,1.9-7.2,2.4c2.3-0.4,4.8-0.8,7.1-1.6v7.7h0.1l-6.1,5.9   h-7.9l-6.1-5.9h0v-7.7c2.3,0.8,4.7,1.2,7.1,1.6c-2.4-0.5-5-1.3-7.2-2.4l-0.7-0.4c-0.9-0.6-1.8-1.3-2.6-2.1   C34,43.2,36.7,43.6,39.9,43.8z M33.2,53.6L33.2,53.6l6.5,6.2l0.5,0.7l-3.3,2.6L33.2,53.6z M41.6,75.1l-4.2-10.8l3.6-2.8l2.9,3.9   L41.6,75.1z M48.4,75.1l-2.2-9.6l2.9-3.9l3.6,2.8L48.4,75.1z M53.1,63.1l-3.3-2.6l0.5-0.6l6.6-6.3h0L53.1,63.1z"/>
</g>
</svg>