<svg xmlns="http://www.w3.org/2000/svg" xmlns:xlink="http://www.w3.org/1999/xlink" xmlns:sketch="http://www.bohemiancoding.com/sketch/ns" width="200px" height="200px" viewBox="5 0 100 90" version="1.1">
    <!-- Generator: Sketch 3.2.2 (9983) - http://www.bohemiancoding.com/sketch -->
    <title>Dropcam_Noun</title>
    <desc>Created with Sketch.</desc>
    <defs/>
    <g id="AppCam" stroke="none" stroke-width="1" fill="none" fill-rule="evenodd" sketch:type="MSPage">
        <g id="Dropcam_Noun" sketch:type="MSArtboardGroup"  fill="#e91d26" >
            <path  fill="#e91d26" d="M26.2866957,31.5609756 L26.24,31.5609756 L26.3914605,32.3543802 C26.4864465,32.9909243 26.6066757,33.6192458 26.7510995,34.2382984 L35.04,77.6585366 L64.74,77.6585366 L72.592499,36.5243264 C73.4206244,34.1069461 73.87,31.5143719 73.87,28.8170732 C73.87,15.6632669 63.183037,5 50,5 C36.816963,5 26.13,15.6632669 26.13,28.8170732 C26.13,29.7450597 26.1831906,30.6606504 26.2866957,31.5609756 L26.2866957,31.5609756 Z M58.8,89.4377611 L58.8,86.9878049 L41.2,86.9878049 L41.2,89.4377611 C27.2467772,89.9087226 17,91.4722039 17,93.3283655 C17,95.5572115 83,95.5572115 83,93.3283655 C83,91.4722039 72.7532228,89.9087226 58.8,89.4377611 L58.8,89.4377611 Z M54.4,77.6585366 L45.6,77.6585366 L45.6,86.9878049 L54.4,86.9878049 L54.4,77.6585366 Z M50.11,47.5239125 C60.1339682,47.5239125 68.26,39.4282684 68.26,29.4417853 C68.26,19.4553022 60.1339682,11.3596581 50.11,11.3596581 C40.0860318,11.3596581 31.96,19.4553022 31.96,29.4417853 C31.96,39.4282684 40.0860318,47.5239125 50.11,47.5239125 Z M64.8238376,77.6585366 L54.9238376,77.6585366 L54.9238376,86.4390244 L64.8238376,86.4390244 L64.8238376,77.6585366 Z M45.05,77.6585366 L35.15,77.6585366 L35.15,86.4390244 L45.05,86.4390244 L45.05,77.6585366 Z M50.11,46.428026 C59.526455,46.428026 67.16,38.823027 67.16,29.4417853 C67.16,20.0605436 59.526455,12.4555446 50.11,12.4555446 C40.693545,12.4555446 33.06,20.0605436 33.06,29.4417853 C33.06,38.823027 40.693545,46.428026 50.11,46.428026 Z M49.67,35.6883383 C53.9225926,35.6883383 57.37,32.2538227 57.37,28.0171329 C57.37,23.7804431 53.9225926,20.3459274 49.67,20.3459274 C45.4174074,20.3459274 41.97,23.7804431 41.97,28.0171329 C41.97,32.2538227 45.4174074,35.6883383 49.67,35.6883383 Z M50,18.592509 C50.6075132,18.592509 51.1,18.1018639 51.1,17.4966225 C51.1,16.8913811 50.6075132,16.400736 50,16.400736 C49.3924868,16.400736 48.9,16.8913811 48.9,17.4966225 C48.9,18.1018639 49.3924868,18.592509 50,18.592509 Z M49.67,32.9486221 C52.4038095,32.9486221 54.62,30.7407192 54.62,28.0171329 C54.62,25.2935466 52.4038095,23.0856436 49.67,23.0856436 C46.9361905,23.0856436 44.72,25.2935466 44.72,28.0171329 C44.72,30.7407192 46.9361905,32.9486221 49.67,32.9486221 Z" id="Rectangle-6" sketch:type="MSShapeGroup"/>
        </g>
    </g>
</svg>